<svg width="375" height="172" viewBox="0 0 375 172" fill="none" xmlns="http://www.w3.org/2000/svg">
<g filter="url(#filter0_d_1474_8286)">
<rect x="291" y="4" width="68" height="68" rx="34" fill="url(#paint0_linear_1474_8286)" shape-rendering="crispEdges"/>
<path fill-rule="evenodd" clip-rule="evenodd" d="M312.609 23H310V25.6087V29.5217H312.609V25.6087H316.522V23H312.609ZM332.174 30.8259H317.826V45.1738H332.174V30.8259ZM330.217 32.7824H319.783V43.2172H330.217V32.7824ZM340 23V25.6087V29.5217H337.391V25.6087H333.478V23H337.391H340ZM312.609 53H310V50.3913V46.4783H312.609V50.3913H316.522V53H312.609ZM340 53V50.3913V46.4783H337.391V50.3913H333.478V53H337.391H340Z" fill="white"/>
<rect x="323.043" y="36.0432" width="3.91304" height="3.91304" fill="white"/>
<rect x="292.5" y="5.5" width="65" height="65" rx="32.5" stroke="white" stroke-width="3" shape-rendering="crispEdges"/>
</g>
<rect width="375" height="84" transform="translate(0 88)" fill="url(#paint1_linear_1474_8286)"/>
<path fill-rule="evenodd" clip-rule="evenodd" d="M36.3982 94.9152L26.0644 104.001C25.7056 104.317 25.5 104.771 25.5 105.248L25.5055 105.384C25.575 106.238 26.292 106.91 27.1662 106.91L28.6929 106.909V114.838C28.6929 115.756 29.4388 116.5 30.3591 116.5H34.9293L35.0347 116.494C35.4846 116.442 35.8338 116.061 35.8338 115.598V110.205H39.1662V115.598C39.1662 116.096 39.5712 116.5 40.0707 116.5H44.6409L44.7776 116.494C45.6339 116.425 46.3071 115.71 46.3071 114.838V106.909L47.8338 106.91C48.3121 106.91 48.7673 106.705 49.0837 106.347C49.6922 105.658 49.6259 104.608 48.9356 104.001L38.6018 94.9152C37.9721 94.3616 37.0278 94.3616 36.3982 94.9152Z" fill="white"/>
<path d="M24.4602 128.75H20.7402L19.9702 130.5H18.9402L22.1102 123.5H23.1002L26.2802 130.5H25.2302L24.4602 128.75ZM24.1102 127.95L22.6002 124.52L21.0902 127.95H24.1102ZM29.4456 130.56C28.9056 130.56 28.4223 130.443 27.9956 130.21C27.5756 129.977 27.2456 129.657 27.0056 129.25C26.7656 128.837 26.6456 128.37 26.6456 127.85C26.6456 127.33 26.7656 126.867 27.0056 126.46C27.2456 126.047 27.5756 125.727 27.9956 125.5C28.4223 125.267 28.9056 125.15 29.4456 125.15C29.9256 125.15 30.3523 125.247 30.7256 125.44C31.1056 125.633 31.3989 125.913 31.6056 126.28L30.8756 126.75C30.7089 126.497 30.5023 126.307 30.2556 126.18C30.0089 126.053 29.7356 125.99 29.4356 125.99C29.0889 125.99 28.7756 126.067 28.4956 126.22C28.2223 126.373 28.0056 126.593 27.8456 126.88C27.6923 127.16 27.6156 127.483 27.6156 127.85C27.6156 128.223 27.6923 128.553 27.8456 128.84C28.0056 129.12 28.2223 129.337 28.4956 129.49C28.7756 129.643 29.0889 129.72 29.4356 129.72C29.7356 129.72 30.0089 129.657 30.2556 129.53C30.5023 129.403 30.7089 129.213 30.8756 128.96L31.6056 129.42C31.3989 129.787 31.1056 130.07 30.7256 130.27C30.3523 130.463 29.9256 130.56 29.4456 130.56ZM35.0804 130.56C34.5404 130.56 34.057 130.443 33.6304 130.21C33.2104 129.977 32.8804 129.657 32.6404 129.25C32.4004 128.837 32.2804 128.37 32.2804 127.85C32.2804 127.33 32.4004 126.867 32.6404 126.46C32.8804 126.047 33.2104 125.727 33.6304 125.5C34.057 125.267 34.5404 125.15 35.0804 125.15C35.5604 125.15 35.987 125.247 36.3604 125.44C36.7404 125.633 37.0337 125.913 37.2404 126.28L36.5104 126.75C36.3437 126.497 36.137 126.307 35.8904 126.18C35.6437 126.053 35.3704 125.99 35.0704 125.99C34.7237 125.99 34.4104 126.067 34.1304 126.22C33.857 126.373 33.6404 126.593 33.4804 126.88C33.327 127.16 33.2504 127.483 33.2504 127.85C33.2504 128.223 33.327 128.553 33.4804 128.84C33.6404 129.12 33.857 129.337 34.1304 129.49C34.4104 129.643 34.7237 129.72 35.0704 129.72C35.3704 129.72 35.6437 129.657 35.8904 129.53C36.137 129.403 36.3437 129.213 36.5104 128.96L37.2404 129.42C37.0337 129.787 36.7404 130.07 36.3604 130.27C35.987 130.463 35.5604 130.56 35.0804 130.56ZM43.4232 125.2V130.5H42.5132V129.7C42.3199 129.973 42.0632 130.187 41.7432 130.34C41.4299 130.487 41.0866 130.56 40.7132 130.56C40.0066 130.56 39.4499 130.367 39.0432 129.98C38.6366 129.587 38.4332 129.01 38.4332 128.25V125.2H39.3932V128.14C39.3932 128.653 39.5166 129.043 39.7632 129.31C40.0099 129.57 40.3632 129.7 40.8232 129.7C41.3299 129.7 41.7299 129.547 42.0232 129.24C42.3166 128.933 42.4632 128.5 42.4632 127.94V125.2H43.4232ZM50.0408 127.88C50.0408 127.953 50.0342 128.05 50.0208 128.17H45.7208C45.7808 128.637 45.9842 129.013 46.3308 129.3C46.6842 129.58 47.1208 129.72 47.6408 129.72C48.2742 129.72 48.7842 129.507 49.1708 129.08L49.7008 129.7C49.4608 129.98 49.1608 130.193 48.8008 130.34C48.4475 130.487 48.0508 130.56 47.6108 130.56C47.0508 130.56 46.5542 130.447 46.1208 130.22C45.6875 129.987 45.3508 129.663 45.1108 129.25C44.8775 128.837 44.7608 128.37 44.7608 127.85C44.7608 127.337 44.8742 126.873 45.1008 126.46C45.3342 126.047 45.6508 125.727 46.0508 125.5C46.4575 125.267 46.9142 125.15 47.4208 125.15C47.9275 125.15 48.3775 125.267 48.7708 125.5C49.1708 125.727 49.4808 126.047 49.7008 126.46C49.9275 126.873 50.0408 127.347 50.0408 127.88ZM47.4208 125.96C46.9608 125.96 46.5742 126.1 46.2608 126.38C45.9542 126.66 45.7742 127.027 45.7208 127.48H49.1208C49.0675 127.033 48.8842 126.67 48.5708 126.39C48.2642 126.103 47.8808 125.96 47.4208 125.96ZM51.3739 125.2H52.3339V130.5H51.3739V125.2ZM51.8539 124.18C51.6672 124.18 51.5105 124.12 51.3839 124C51.2639 123.88 51.2039 123.733 51.2039 123.56C51.2039 123.387 51.2639 123.24 51.3839 123.12C51.5105 122.993 51.6672 122.93 51.8539 122.93C52.0405 122.93 52.1939 122.99 52.3139 123.11C52.4405 123.223 52.5039 123.367 52.5039 123.54C52.5039 123.72 52.4405 123.873 52.3139 124C52.1939 124.12 52.0405 124.18 51.8539 124.18ZM54.1668 123.08H55.1268V130.5H54.1668V123.08Z" fill="white"/>
<g opacity="0.5">
<path fill-rule="evenodd" clip-rule="evenodd" d="M108.793 95.2217C108.744 94.8148 108.408 94.5 108.001 94.5C107.559 94.5 107.202 94.8695 107.202 95.3252V96.8746H103.326C102.318 96.8746 101.5 97.7191 101.5 98.7608V114.614C101.5 115.656 102.318 116.5 103.326 116.5H121.674C122.682 116.5 123.5 115.656 123.5 114.614V98.7608C123.5 97.7191 122.682 96.8746 121.674 96.8746H117.8V95.3252L117.793 95.2217C117.744 94.8148 117.408 94.5 117.001 94.5C116.56 94.5 116.202 94.8695 116.202 95.3252V96.8746H108.8V95.3252L108.793 95.2217ZM107.202 98.5249V98.9404L107.208 99.0439C107.257 99.4508 107.593 99.7656 108.001 99.7656C108.442 99.7656 108.8 99.3962 108.8 98.9404V98.5249H116.202V98.9404L116.208 99.0439C116.257 99.4508 116.593 99.7656 117.001 99.7656C117.442 99.7656 117.8 99.3962 117.8 98.9404V98.5249H121.674L121.727 98.5311C121.828 98.5556 121.903 98.6491 121.903 98.7607V102.763H103.098V98.7607L103.104 98.7066C103.128 98.6025 103.218 98.5249 103.327 98.5249H107.202ZM103.098 104.414V114.614C103.098 114.725 103.173 114.819 103.274 114.843L103.327 114.849H121.674C121.782 114.849 121.873 114.772 121.897 114.668L121.903 114.614V104.414H103.098Z" fill="white"/>
<path d="M90.303 130.58C89.603 130.58 88.9697 130.427 88.403 130.12C87.843 129.807 87.403 129.38 87.083 128.84C86.763 128.293 86.603 127.68 86.603 127C86.603 126.32 86.763 125.71 87.083 125.17C87.403 124.623 87.8464 124.197 88.413 123.89C88.9797 123.577 89.613 123.42 90.313 123.42C90.8597 123.42 91.3597 123.513 91.813 123.7C92.2664 123.88 92.653 124.15 92.973 124.51L92.323 125.14C91.7964 124.587 91.1397 124.31 90.353 124.31C89.833 124.31 89.363 124.427 88.943 124.66C88.523 124.893 88.193 125.217 87.953 125.63C87.7197 126.037 87.603 126.493 87.603 127C87.603 127.507 87.7197 127.967 87.953 128.38C88.193 128.787 88.523 129.107 88.943 129.34C89.363 129.573 89.833 129.69 90.353 129.69C91.133 129.69 91.7897 129.41 92.323 128.85L92.973 129.48C92.653 129.84 92.263 130.113 91.803 130.3C91.3497 130.487 90.8497 130.58 90.303 130.58ZM96.1213 125.15C96.8546 125.15 97.4146 125.33 97.8013 125.69C98.1946 126.05 98.3913 126.587 98.3913 127.3V130.5H97.4813V129.8C97.3213 130.047 97.0913 130.237 96.7913 130.37C96.4979 130.497 96.1479 130.56 95.7413 130.56C95.1479 130.56 94.6713 130.417 94.3113 130.13C93.9579 129.843 93.7813 129.467 93.7813 129C93.7813 128.533 93.9513 128.16 94.2913 127.88C94.6313 127.593 95.1713 127.45 95.9113 127.45H97.4313V127.26C97.4313 126.847 97.3113 126.53 97.0713 126.31C96.8313 126.09 96.4779 125.98 96.0113 125.98C95.6979 125.98 95.3913 126.033 95.0913 126.14C94.7913 126.24 94.5379 126.377 94.3313 126.55L93.9313 125.83C94.2046 125.61 94.5313 125.443 94.9113 125.33C95.2913 125.21 95.6946 125.15 96.1213 125.15ZM95.9013 129.82C96.2679 129.82 96.5846 129.74 96.8513 129.58C97.1179 129.413 97.3113 129.18 97.4313 128.88V128.14H95.9513C95.1379 128.14 94.7313 128.413 94.7313 128.96C94.7313 129.227 94.8346 129.437 95.0413 129.59C95.2479 129.743 95.5346 129.82 95.9013 129.82ZM100.168 123.08H101.128V130.5H100.168V123.08ZM107.751 127.88C107.751 127.953 107.744 128.05 107.731 128.17H103.431C103.491 128.637 103.694 129.013 104.041 129.3C104.394 129.58 104.831 129.72 105.351 129.72C105.984 129.72 106.494 129.507 106.881 129.08L107.411 129.7C107.171 129.98 106.871 130.193 106.511 130.34C106.157 130.487 105.761 130.56 105.321 130.56C104.761 130.56 104.264 130.447 103.831 130.22C103.397 129.987 103.061 129.663 102.821 129.25C102.587 128.837 102.471 128.37 102.471 127.85C102.471 127.337 102.584 126.873 102.811 126.46C103.044 126.047 103.361 125.727 103.761 125.5C104.167 125.267 104.624 125.15 105.131 125.15C105.637 125.15 106.087 125.267 106.481 125.5C106.881 125.727 107.191 126.047 107.411 126.46C107.637 126.873 107.751 127.347 107.751 127.88ZM105.131 125.96C104.671 125.96 104.284 126.1 103.971 126.38C103.664 126.66 103.484 127.027 103.431 127.48H106.831C106.777 127.033 106.594 126.67 106.281 126.39C105.974 126.103 105.591 125.96 105.131 125.96ZM111.914 125.15C112.587 125.15 113.12 125.347 113.514 125.74C113.914 126.127 114.114 126.697 114.114 127.45V130.5H113.154V127.56C113.154 127.047 113.03 126.66 112.784 126.4C112.537 126.14 112.184 126.01 111.724 126.01C111.204 126.01 110.794 126.163 110.494 126.47C110.194 126.77 110.044 127.203 110.044 127.77V130.5H109.084V125.2H110.004V126C110.197 125.727 110.457 125.517 110.784 125.37C111.117 125.223 111.494 125.15 111.914 125.15ZM120.92 123.08V130.5H120V129.66C119.786 129.953 119.516 130.177 119.19 130.33C118.863 130.483 118.503 130.56 118.11 130.56C117.596 130.56 117.136 130.447 116.73 130.22C116.323 129.993 116.003 129.677 115.77 129.27C115.543 128.857 115.43 128.383 115.43 127.85C115.43 127.317 115.543 126.847 115.77 126.44C116.003 126.033 116.323 125.717 116.73 125.49C117.136 125.263 117.596 125.15 118.11 125.15C118.49 125.15 118.84 125.223 119.16 125.37C119.48 125.51 119.746 125.72 119.96 126V123.08H120.92ZM118.19 129.72C118.523 129.72 118.826 129.643 119.1 129.49C119.373 129.33 119.586 129.11 119.74 128.83C119.893 128.543 119.97 128.217 119.97 127.85C119.97 127.483 119.893 127.16 119.74 126.88C119.586 126.593 119.373 126.373 119.1 126.22C118.826 126.067 118.523 125.99 118.19 125.99C117.85 125.99 117.543 126.067 117.27 126.22C117.003 126.373 116.79 126.593 116.63 126.88C116.476 127.16 116.4 127.483 116.4 127.85C116.4 128.217 116.476 128.543 116.63 128.83C116.79 129.11 117.003 129.33 117.27 129.49C117.543 129.643 117.85 129.72 118.19 129.72ZM123.656 126.09C123.823 125.783 124.07 125.55 124.396 125.39C124.723 125.23 125.12 125.15 125.586 125.15V126.08C125.533 126.073 125.46 126.07 125.366 126.07C124.846 126.07 124.436 126.227 124.136 126.54C123.843 126.847 123.696 127.287 123.696 127.86V130.5H122.736V125.2H123.656V126.09ZM126.769 125.2H127.729V130.5H126.769V125.2ZM127.249 124.18C127.063 124.18 126.906 124.12 126.779 124C126.659 123.88 126.599 123.733 126.599 123.56C126.599 123.387 126.659 123.24 126.779 123.12C126.906 122.993 127.063 122.93 127.249 122.93C127.436 122.93 127.589 122.99 127.709 123.11C127.836 123.223 127.899 123.367 127.899 123.54C127.899 123.72 127.836 123.873 127.709 124C127.589 124.12 127.436 124.18 127.249 124.18ZM134.352 127.88C134.352 127.953 134.346 128.05 134.332 128.17H130.032C130.092 128.637 130.296 129.013 130.642 129.3C130.996 129.58 131.432 129.72 131.952 129.72C132.586 129.72 133.096 129.507 133.482 129.08L134.012 129.7C133.772 129.98 133.472 130.193 133.112 130.34C132.759 130.487 132.362 130.56 131.922 130.56C131.362 130.56 130.866 130.447 130.432 130.22C129.999 129.987 129.662 129.663 129.422 129.25C129.189 128.837 129.072 128.37 129.072 127.85C129.072 127.337 129.186 126.873 129.412 126.46C129.646 126.047 129.962 125.727 130.362 125.5C130.769 125.267 131.226 125.15 131.732 125.15C132.239 125.15 132.689 125.267 133.082 125.5C133.482 125.727 133.792 126.047 134.012 126.46C134.239 126.873 134.352 127.347 134.352 127.88ZM131.732 125.96C131.272 125.96 130.886 126.1 130.572 126.38C130.266 126.66 130.086 127.027 130.032 127.48H133.432C133.379 127.033 133.196 126.67 132.882 126.39C132.576 126.103 132.192 125.96 131.732 125.96ZM136.605 126.09C136.772 125.783 137.019 125.55 137.345 125.39C137.672 125.23 138.069 125.15 138.535 125.15V126.08C138.482 126.073 138.409 126.07 138.315 126.07C137.795 126.07 137.385 126.227 137.085 126.54C136.792 126.847 136.645 127.287 136.645 127.86V130.5H135.685V125.2H136.605V126.09Z" fill="white"/>
</g>
<g opacity="0.5">
<path fill-rule="evenodd" clip-rule="evenodd" d="M199.5 98.2123C199.5 97.2656 198.759 96.498 197.845 96.498H188.327H186.672H177.155C176.241 96.498 175.5 97.2656 175.5 98.2123V112.784C175.5 113.731 176.241 114.498 177.155 114.498H186.672H188.327H197.845C198.759 114.498 199.5 113.731 199.5 112.784V98.2123ZM197.844 112.998H188.327V109.697C190.215 109.3 191.635 107.571 191.635 105.498C191.635 103.425 190.215 101.696 188.327 101.298V97.998H197.844L197.891 98.0036C197.982 98.0258 198.05 98.1108 198.05 98.2123V100.784H196.189C195.275 100.784 194.534 101.551 194.534 102.498V108.498C194.534 109.445 195.275 110.212 196.189 110.212H198.05V112.784L198.045 112.833C198.024 112.927 197.941 112.998 197.844 112.998ZM196.189 102.069H198.05V108.927H196.189L196.115 108.92C195.922 108.883 195.775 108.708 195.775 108.498V102.498L195.782 102.421C195.817 102.221 195.986 102.069 196.189 102.069ZM186.672 101.298V97.998H177.154C177.056 97.998 176.974 98.0685 176.953 98.1631L176.947 98.2123V100.784H178.811C179.725 100.784 180.466 101.551 180.466 102.498V108.498C180.466 109.445 179.725 110.212 178.811 110.212H176.947V112.784C176.947 112.885 177.015 112.97 177.107 112.992L177.154 112.998H186.672V109.698C184.782 109.302 183.359 107.572 183.359 105.498C183.359 103.424 184.782 101.694 186.672 101.298ZM176.947 108.926H178.811C179.014 108.926 179.183 108.775 179.218 108.575L179.225 108.498V102.498C179.225 102.287 179.078 102.112 178.885 102.076L178.811 102.069H176.947V108.926ZM186.672 108.375C185.474 108.006 184.601 106.858 184.601 105.498C184.601 104.138 185.474 102.99 186.672 102.622V108.375ZM188.327 102.623C189.522 102.993 190.394 104.14 190.394 105.498C190.394 106.856 189.522 108.003 188.327 108.373V102.623Z" fill="white"/>
<path d="M174.203 130.58C173.677 130.58 173.167 130.5 172.673 130.34C172.187 130.173 171.803 129.96 171.523 129.7L171.893 128.92C172.16 129.16 172.5 129.357 172.913 129.51C173.333 129.657 173.763 129.73 174.203 129.73C174.783 129.73 175.217 129.633 175.503 129.44C175.79 129.24 175.933 128.977 175.933 128.65C175.933 128.41 175.853 128.217 175.693 128.07C175.54 127.917 175.347 127.8 175.113 127.72C174.887 127.64 174.563 127.55 174.143 127.45C173.617 127.323 173.19 127.197 172.863 127.07C172.543 126.943 172.267 126.75 172.033 126.49C171.807 126.223 171.693 125.867 171.693 125.42C171.693 125.047 171.79 124.71 171.983 124.41C172.183 124.11 172.483 123.87 172.883 123.69C173.283 123.51 173.78 123.42 174.373 123.42C174.787 123.42 175.193 123.473 175.593 123.58C175.993 123.687 176.337 123.84 176.623 124.04L176.293 124.84C176 124.653 175.687 124.513 175.353 124.42C175.02 124.32 174.693 124.27 174.373 124.27C173.807 124.27 173.38 124.373 173.093 124.58C172.813 124.787 172.673 125.053 172.673 125.38C172.673 125.62 172.753 125.817 172.913 125.97C173.073 126.117 173.27 126.233 173.503 126.32C173.743 126.4 174.067 126.487 174.473 126.58C175 126.707 175.423 126.833 175.743 126.96C176.063 127.087 176.337 127.28 176.563 127.54C176.797 127.8 176.913 128.15 176.913 128.59C176.913 128.957 176.813 129.293 176.613 129.6C176.413 129.9 176.11 130.14 175.703 130.32C175.297 130.493 174.797 130.58 174.203 130.58ZM181.044 125.15C181.558 125.15 182.018 125.263 182.424 125.49C182.831 125.717 183.148 126.033 183.374 126.44C183.608 126.847 183.724 127.317 183.724 127.85C183.724 128.383 183.608 128.857 183.374 129.27C183.148 129.677 182.831 129.993 182.424 130.22C182.018 130.447 181.558 130.56 181.044 130.56C180.664 130.56 180.314 130.487 179.994 130.34C179.681 130.193 179.414 129.98 179.194 129.7V132.44H178.234V125.2H179.154V126.04C179.368 125.747 179.638 125.527 179.964 125.38C180.291 125.227 180.651 125.15 181.044 125.15ZM180.964 129.72C181.304 129.72 181.608 129.643 181.874 129.49C182.148 129.33 182.361 129.11 182.514 128.83C182.674 128.543 182.754 128.217 182.754 127.85C182.754 127.483 182.674 127.16 182.514 126.88C182.361 126.593 182.148 126.373 181.874 126.22C181.608 126.067 181.304 125.99 180.964 125.99C180.631 125.99 180.328 126.07 180.054 126.23C179.788 126.383 179.574 126.6 179.414 126.88C179.261 127.16 179.184 127.483 179.184 127.85C179.184 128.217 179.261 128.543 179.414 128.83C179.568 129.11 179.781 129.33 180.054 129.49C180.328 129.643 180.631 129.72 180.964 129.72ZM187.321 130.56C186.794 130.56 186.321 130.443 185.901 130.21C185.481 129.977 185.151 129.657 184.911 129.25C184.677 128.837 184.561 128.37 184.561 127.85C184.561 127.33 184.677 126.867 184.911 126.46C185.151 126.047 185.481 125.727 185.901 125.5C186.321 125.267 186.794 125.15 187.321 125.15C187.847 125.15 188.317 125.267 188.731 125.5C189.151 125.727 189.477 126.047 189.711 126.46C189.951 126.867 190.071 127.33 190.071 127.85C190.071 128.37 189.951 128.837 189.711 129.25C189.477 129.657 189.151 129.977 188.731 130.21C188.317 130.443 187.847 130.56 187.321 130.56ZM187.321 129.72C187.661 129.72 187.964 129.643 188.231 129.49C188.504 129.33 188.717 129.11 188.871 128.83C189.024 128.543 189.101 128.217 189.101 127.85C189.101 127.483 189.024 127.16 188.871 126.88C188.717 126.593 188.504 126.373 188.231 126.22C187.964 126.067 187.661 125.99 187.321 125.99C186.981 125.99 186.674 126.067 186.401 126.22C186.134 126.373 185.921 126.593 185.761 126.88C185.607 127.16 185.531 127.483 185.531 127.85C185.531 128.217 185.607 128.543 185.761 128.83C185.921 129.11 186.134 129.33 186.401 129.49C186.674 129.643 186.981 129.72 187.321 129.72ZM192.318 126.09C192.485 125.783 192.732 125.55 193.058 125.39C193.385 125.23 193.782 125.15 194.248 125.15V126.08C194.195 126.073 194.122 126.07 194.028 126.07C193.508 126.07 193.098 126.227 192.798 126.54C192.505 126.847 192.358 127.287 192.358 127.86V130.5H191.398V125.2H192.318V126.09ZM198.626 130.19C198.486 130.31 198.313 130.403 198.106 130.47C197.9 130.53 197.686 130.56 197.466 130.56C196.933 130.56 196.52 130.417 196.226 130.13C195.933 129.843 195.786 129.433 195.786 128.9V125.99H194.886V125.2H195.786V124.04H196.746V125.2H198.266V125.99H196.746V128.86C196.746 129.147 196.816 129.367 196.956 129.52C197.103 129.673 197.31 129.75 197.576 129.75C197.87 129.75 198.12 129.667 198.326 129.5L198.626 130.19ZM201.307 130.56C200.874 130.56 200.457 130.503 200.057 130.39C199.657 130.27 199.344 130.12 199.117 129.94L199.517 129.18C199.75 129.347 200.034 129.48 200.367 129.58C200.7 129.68 201.037 129.73 201.377 129.73C202.217 129.73 202.637 129.49 202.637 129.01C202.637 128.85 202.58 128.723 202.467 128.63C202.354 128.537 202.21 128.47 202.037 128.43C201.87 128.383 201.63 128.333 201.317 128.28C200.89 128.213 200.54 128.137 200.267 128.05C200 127.963 199.77 127.817 199.577 127.61C199.384 127.403 199.287 127.113 199.287 126.74C199.287 126.26 199.487 125.877 199.887 125.59C200.287 125.297 200.824 125.15 201.497 125.15C201.85 125.15 202.204 125.193 202.557 125.28C202.91 125.367 203.2 125.483 203.427 125.63L203.017 126.39C202.584 126.11 202.074 125.97 201.487 125.97C201.08 125.97 200.77 126.037 200.557 126.17C200.344 126.303 200.237 126.48 200.237 126.7C200.237 126.873 200.297 127.01 200.417 127.11C200.537 127.21 200.684 127.283 200.857 127.33C201.037 127.377 201.287 127.43 201.607 127.49C202.034 127.563 202.377 127.643 202.637 127.73C202.904 127.81 203.13 127.95 203.317 128.15C203.504 128.35 203.597 128.63 203.597 128.99C203.597 129.47 203.39 129.853 202.977 130.14C202.57 130.42 202.014 130.56 201.307 130.56Z" fill="white"/>
</g>
<g opacity="0.5">
<path fill-rule="evenodd" clip-rule="evenodd" d="M265.96 103.491L265.374 106.359C264.914 108.639 264.305 110.948 262.93 112.417C261.555 113.887 259.391 114.573 256.119 114.573L254.387 114.556L255.149 110.753H255.388C257.509 110.753 258.942 109.536 259.421 107.331C259.605 106.486 259.746 105.776 259.752 105.746L260.2 103.49H256.667L264.311 97.1426L269.559 103.49L265.96 103.491ZM264.546 94.498L251.5 105.329H257.972C257.972 105.329 257.829 106.053 257.646 106.891C257.354 108.245 256.631 108.824 255.386 108.824H253.662L252.141 116.459L256.116 116.498C264.171 116.498 266.006 112.475 267.156 106.76L267.447 105.333H273.5L264.546 94.498Z" fill="white"/>
<path d="M227.867 130.58C227.167 130.58 226.533 130.427 225.967 130.12C225.407 129.807 224.967 129.38 224.647 128.84C224.327 128.293 224.167 127.68 224.167 127C224.167 126.32 224.327 125.71 224.647 125.17C224.967 124.623 225.41 124.197 225.977 123.89C226.543 123.577 227.177 123.42 227.877 123.42C228.423 123.42 228.923 123.513 229.377 123.7C229.83 123.88 230.217 124.15 230.537 124.51L229.887 125.14C229.36 124.587 228.703 124.31 227.917 124.31C227.397 124.31 226.927 124.427 226.507 124.66C226.087 124.893 225.757 125.217 225.517 125.63C225.283 126.037 225.167 126.493 225.167 127C225.167 127.507 225.283 127.967 225.517 128.38C225.757 128.787 226.087 129.107 226.507 129.34C226.927 129.573 227.397 129.69 227.917 129.69C228.697 129.69 229.353 129.41 229.887 128.85L230.537 129.48C230.217 129.84 229.827 130.113 229.367 130.3C228.913 130.487 228.413 130.58 227.867 130.58ZM233.868 130.56C233.342 130.56 232.868 130.443 232.448 130.21C232.028 129.977 231.698 129.657 231.458 129.25C231.225 128.837 231.108 128.37 231.108 127.85C231.108 127.33 231.225 126.867 231.458 126.46C231.698 126.047 232.028 125.727 232.448 125.5C232.868 125.267 233.342 125.15 233.868 125.15C234.395 125.15 234.865 125.267 235.278 125.5C235.698 125.727 236.025 126.047 236.258 126.46C236.498 126.867 236.618 127.33 236.618 127.85C236.618 128.37 236.498 128.837 236.258 129.25C236.025 129.657 235.698 129.977 235.278 130.21C234.865 130.443 234.395 130.56 233.868 130.56ZM233.868 129.72C234.208 129.72 234.512 129.643 234.778 129.49C235.052 129.33 235.265 129.11 235.418 128.83C235.572 128.543 235.648 128.217 235.648 127.85C235.648 127.483 235.572 127.16 235.418 126.88C235.265 126.593 235.052 126.373 234.778 126.22C234.512 126.067 234.208 125.99 233.868 125.99C233.528 125.99 233.222 126.067 232.948 126.22C232.682 126.373 232.468 126.593 232.308 126.88C232.155 127.16 232.078 127.483 232.078 127.85C232.078 128.217 232.155 128.543 232.308 128.83C232.468 129.11 232.682 129.33 232.948 129.49C233.222 129.643 233.528 129.72 233.868 129.72ZM240.926 130.19C240.786 130.31 240.613 130.403 240.406 130.47C240.199 130.53 239.986 130.56 239.766 130.56C239.233 130.56 238.819 130.417 238.526 130.13C238.233 129.843 238.086 129.433 238.086 128.9V125.99H237.186V125.2H238.086V124.04H239.046V125.2H240.566V125.99H239.046V128.86C239.046 129.147 239.116 129.367 239.256 129.52C239.403 129.673 239.609 129.75 239.876 129.75C240.169 129.75 240.419 129.667 240.626 129.5L240.926 130.19ZM246.701 127.88C246.701 127.953 246.694 128.05 246.681 128.17H242.381C242.441 128.637 242.644 129.013 242.991 129.3C243.344 129.58 243.781 129.72 244.301 129.72C244.934 129.72 245.444 129.507 245.831 129.08L246.361 129.7C246.121 129.98 245.821 130.193 245.461 130.34C245.108 130.487 244.711 130.56 244.271 130.56C243.711 130.56 243.214 130.447 242.781 130.22C242.348 129.987 242.011 129.663 241.771 129.25C241.538 128.837 241.421 128.37 241.421 127.85C241.421 127.337 241.534 126.873 241.761 126.46C241.994 126.047 242.311 125.727 242.711 125.5C243.118 125.267 243.574 125.15 244.081 125.15C244.588 125.15 245.038 125.267 245.431 125.5C245.831 125.727 246.141 126.047 246.361 126.46C246.588 126.873 246.701 127.347 246.701 127.88ZM244.081 125.96C243.621 125.96 243.234 126.1 242.921 126.38C242.614 126.66 242.434 127.027 242.381 127.48H245.781C245.728 127.033 245.544 126.67 245.231 126.39C244.924 126.103 244.541 125.96 244.081 125.96ZM249.554 130.56C249.121 130.56 248.704 130.503 248.304 130.39C247.904 130.27 247.591 130.12 247.364 129.94L247.764 129.18C247.997 129.347 248.281 129.48 248.614 129.58C248.947 129.68 249.284 129.73 249.624 129.73C250.464 129.73 250.884 129.49 250.884 129.01C250.884 128.85 250.827 128.723 250.714 128.63C250.601 128.537 250.457 128.47 250.284 128.43C250.117 128.383 249.877 128.333 249.564 128.28C249.137 128.213 248.787 128.137 248.514 128.05C248.247 127.963 248.017 127.817 247.824 127.61C247.631 127.403 247.534 127.113 247.534 126.74C247.534 126.26 247.734 125.877 248.134 125.59C248.534 125.297 249.071 125.15 249.744 125.15C250.097 125.15 250.451 125.193 250.804 125.28C251.157 125.367 251.447 125.483 251.674 125.63L251.264 126.39C250.831 126.11 250.321 125.97 249.734 125.97C249.327 125.97 249.017 126.037 248.804 126.17C248.591 126.303 248.484 126.48 248.484 126.7C248.484 126.873 248.544 127.01 248.664 127.11C248.784 127.21 248.931 127.283 249.104 127.33C249.284 127.377 249.534 127.43 249.854 127.49C250.281 127.563 250.624 127.643 250.884 127.73C251.151 127.81 251.377 127.95 251.564 128.15C251.751 128.35 251.844 128.63 251.844 128.99C251.844 129.47 251.637 129.853 251.224 130.14C250.817 130.42 250.261 130.56 249.554 130.56ZM260.579 126.87C260.986 126.983 261.306 127.19 261.539 127.49C261.773 127.783 261.889 128.157 261.889 128.61C261.889 129.217 261.659 129.683 261.199 130.01C260.746 130.337 260.083 130.5 259.209 130.5H255.869V123.5H259.009C259.809 123.5 260.426 123.66 260.859 123.98C261.299 124.3 261.519 124.743 261.519 125.31C261.519 125.677 261.433 125.993 261.259 126.26C261.093 126.527 260.866 126.73 260.579 126.87ZM256.869 124.31V126.55H258.919C259.433 126.55 259.826 126.457 260.099 126.27C260.379 126.077 260.519 125.797 260.519 125.43C260.519 125.063 260.379 124.787 260.099 124.6C259.826 124.407 259.433 124.31 258.919 124.31H256.869ZM259.169 129.69C259.736 129.69 260.163 129.597 260.449 129.41C260.736 129.223 260.879 128.93 260.879 128.53C260.879 127.75 260.309 127.36 259.169 127.36H256.869V129.69H259.169ZM265.568 130.56C265.041 130.56 264.568 130.443 264.148 130.21C263.728 129.977 263.398 129.657 263.158 129.25C262.924 128.837 262.808 128.37 262.808 127.85C262.808 127.33 262.924 126.867 263.158 126.46C263.398 126.047 263.728 125.727 264.148 125.5C264.568 125.267 265.041 125.15 265.568 125.15C266.094 125.15 266.564 125.267 266.978 125.5C267.398 125.727 267.724 126.047 267.958 126.46C268.198 126.867 268.318 127.33 268.318 127.85C268.318 128.37 268.198 128.837 267.958 129.25C267.724 129.657 267.398 129.977 266.978 130.21C266.564 130.443 266.094 130.56 265.568 130.56ZM265.568 129.72C265.908 129.72 266.211 129.643 266.478 129.49C266.751 129.33 266.964 129.11 267.118 128.83C267.271 128.543 267.348 128.217 267.348 127.85C267.348 127.483 267.271 127.16 267.118 126.88C266.964 126.593 266.751 126.373 266.478 126.22C266.211 126.067 265.908 125.99 265.568 125.99C265.228 125.99 264.921 126.067 264.648 126.22C264.381 126.373 264.168 126.593 264.008 126.88C263.854 127.16 263.778 127.483 263.778 127.85C263.778 128.217 263.854 128.543 264.008 128.83C264.168 129.11 264.381 129.33 264.648 129.49C264.921 129.643 265.228 129.72 265.568 129.72ZM271.915 130.56C271.389 130.56 270.915 130.443 270.495 130.21C270.075 129.977 269.745 129.657 269.505 129.25C269.272 128.837 269.155 128.37 269.155 127.85C269.155 127.33 269.272 126.867 269.505 126.46C269.745 126.047 270.075 125.727 270.495 125.5C270.915 125.267 271.389 125.15 271.915 125.15C272.442 125.15 272.912 125.267 273.325 125.5C273.745 125.727 274.072 126.047 274.305 126.46C274.545 126.867 274.665 127.33 274.665 127.85C274.665 128.37 274.545 128.837 274.305 129.25C274.072 129.657 273.745 129.977 273.325 130.21C272.912 130.443 272.442 130.56 271.915 130.56ZM271.915 129.72C272.255 129.72 272.559 129.643 272.825 129.49C273.099 129.33 273.312 129.11 273.465 128.83C273.619 128.543 273.695 128.217 273.695 127.85C273.695 127.483 273.619 127.16 273.465 126.88C273.312 126.593 273.099 126.373 272.825 126.22C272.559 126.067 272.255 125.99 271.915 125.99C271.575 125.99 271.269 126.067 270.995 126.22C270.729 126.373 270.515 126.593 270.355 126.88C270.202 127.16 270.125 127.483 270.125 127.85C270.125 128.217 270.202 128.543 270.355 128.83C270.515 129.11 270.729 129.33 270.995 129.49C271.269 129.643 271.575 129.72 271.915 129.72ZM277.513 130.56C277.08 130.56 276.663 130.503 276.263 130.39C275.863 130.27 275.55 130.12 275.323 129.94L275.723 129.18C275.956 129.347 276.24 129.48 276.573 129.58C276.906 129.68 277.243 129.73 277.583 129.73C278.423 129.73 278.843 129.49 278.843 129.01C278.843 128.85 278.786 128.723 278.673 128.63C278.56 128.537 278.416 128.47 278.243 128.43C278.076 128.383 277.836 128.333 277.523 128.28C277.096 128.213 276.746 128.137 276.473 128.05C276.206 127.963 275.976 127.817 275.783 127.61C275.59 127.403 275.493 127.113 275.493 126.74C275.493 126.26 275.693 125.877 276.093 125.59C276.493 125.297 277.03 125.15 277.703 125.15C278.056 125.15 278.41 125.193 278.763 125.28C279.116 125.367 279.406 125.483 279.633 125.63L279.223 126.39C278.79 126.11 278.28 125.97 277.693 125.97C277.286 125.97 276.976 126.037 276.763 126.17C276.55 126.303 276.443 126.48 276.443 126.7C276.443 126.873 276.503 127.01 276.623 127.11C276.743 127.21 276.89 127.283 277.063 127.33C277.243 127.377 277.493 127.43 277.813 127.49C278.24 127.563 278.583 127.643 278.843 127.73C279.11 127.81 279.336 127.95 279.523 128.15C279.71 128.35 279.803 128.63 279.803 128.99C279.803 129.47 279.596 129.853 279.183 130.14C278.776 130.42 278.22 130.56 277.513 130.56ZM283.983 130.19C283.843 130.31 283.669 130.403 283.463 130.47C283.256 130.53 283.043 130.56 282.823 130.56C282.289 130.56 281.876 130.417 281.583 130.13C281.289 129.843 281.143 129.433 281.143 128.9V125.99H280.243V125.2H281.143V124.04H282.103V125.2H283.623V125.99H282.103V128.86C282.103 129.147 282.173 129.367 282.313 129.52C282.459 129.673 282.666 129.75 282.933 129.75C283.226 129.75 283.476 129.667 283.683 129.5L283.983 130.19ZM289.758 127.88C289.758 127.953 289.751 128.05 289.738 128.17H285.438C285.498 128.637 285.701 129.013 286.048 129.3C286.401 129.58 286.838 129.72 287.358 129.72C287.991 129.72 288.501 129.507 288.888 129.08L289.418 129.7C289.178 129.98 288.878 130.193 288.518 130.34C288.164 130.487 287.768 130.56 287.328 130.56C286.768 130.56 286.271 130.447 285.838 130.22C285.404 129.987 285.068 129.663 284.828 129.25C284.594 128.837 284.478 128.37 284.478 127.85C284.478 127.337 284.591 126.873 284.818 126.46C285.051 126.047 285.368 125.727 285.768 125.5C286.174 125.267 286.631 125.15 287.138 125.15C287.644 125.15 288.094 125.267 288.488 125.5C288.888 125.727 289.198 126.047 289.418 126.46C289.644 126.873 289.758 127.347 289.758 127.88ZM287.138 125.96C286.678 125.96 286.291 126.1 285.978 126.38C285.671 126.66 285.491 127.027 285.438 127.48H288.838C288.784 127.033 288.601 126.67 288.288 126.39C287.981 126.103 287.598 125.96 287.138 125.96ZM287.738 123.13H288.958L287.278 124.43H286.378L287.738 123.13ZM295.881 127.88C295.881 127.953 295.874 128.05 295.861 128.17H291.561C291.621 128.637 291.824 129.013 292.171 129.3C292.524 129.58 292.961 129.72 293.481 129.72C294.114 129.72 294.624 129.507 295.011 129.08L295.541 129.7C295.301 129.98 295.001 130.193 294.641 130.34C294.287 130.487 293.891 130.56 293.451 130.56C292.891 130.56 292.394 130.447 291.961 130.22C291.527 129.987 291.191 129.663 290.951 129.25C290.717 128.837 290.601 128.37 290.601 127.85C290.601 127.337 290.714 126.873 290.941 126.46C291.174 126.047 291.491 125.727 291.891 125.5C292.297 125.267 292.754 125.15 293.261 125.15C293.767 125.15 294.217 125.267 294.611 125.5C295.011 125.727 295.321 126.047 295.541 126.46C295.767 126.873 295.881 127.347 295.881 127.88ZM293.261 125.96C292.801 125.96 292.414 126.1 292.101 126.38C291.794 126.66 291.614 127.027 291.561 127.48H294.961C294.907 127.033 294.724 126.67 294.411 126.39C294.104 126.103 293.721 125.96 293.261 125.96ZM298.734 130.56C298.3 130.56 297.884 130.503 297.484 130.39C297.084 130.27 296.77 130.12 296.544 129.94L296.944 129.18C297.177 129.347 297.46 129.48 297.794 129.58C298.127 129.68 298.464 129.73 298.804 129.73C299.644 129.73 300.064 129.49 300.064 129.01C300.064 128.85 300.007 128.723 299.894 128.63C299.78 128.537 299.637 128.47 299.464 128.43C299.297 128.383 299.057 128.333 298.744 128.28C298.317 128.213 297.967 128.137 297.694 128.05C297.427 127.963 297.197 127.817 297.004 127.61C296.81 127.403 296.714 127.113 296.714 126.74C296.714 126.26 296.914 125.877 297.314 125.59C297.714 125.297 298.25 125.15 298.924 125.15C299.277 125.15 299.63 125.193 299.984 125.28C300.337 125.367 300.627 125.483 300.854 125.63L300.444 126.39C300.01 126.11 299.5 125.97 298.914 125.97C298.507 125.97 298.197 126.037 297.984 126.17C297.77 126.303 297.664 126.48 297.664 126.7C297.664 126.873 297.724 127.01 297.844 127.11C297.964 127.21 298.11 127.283 298.284 127.33C298.464 127.377 298.714 127.43 299.034 127.49C299.46 127.563 299.804 127.643 300.064 127.73C300.33 127.81 300.557 127.95 300.744 128.15C300.93 128.35 301.024 128.63 301.024 128.99C301.024 129.47 300.817 129.853 300.404 130.14C299.997 130.42 299.44 130.56 298.734 130.56Z" fill="white"/>
</g>
<g opacity="0.5">
<path fill-rule="evenodd" clip-rule="evenodd" d="M339.91 111.414L338.893 106.244L343.402 103.089H338.272L337.502 99.1759L335.533 103.089H330.66L334.014 106.108L331.258 111.585L336.233 108.105L339.91 111.414ZM340.593 107.03L342.303 115.72L336.123 110.158L327.058 116.5L332.08 106.519L326.5 101.498H334.606L338.127 94.5L339.504 101.498H348.5L340.593 107.03Z" fill="white"/>
<path d="M309.556 123.5H310.556V129.63H314.346V130.5H309.556V123.5ZM317.555 130.56C317.028 130.56 316.555 130.443 316.135 130.21C315.715 129.977 315.385 129.657 315.145 129.25C314.912 128.837 314.795 128.37 314.795 127.85C314.795 127.33 314.912 126.867 315.145 126.46C315.385 126.047 315.715 125.727 316.135 125.5C316.555 125.267 317.028 125.15 317.555 125.15C318.082 125.15 318.552 125.267 318.965 125.5C319.385 125.727 319.712 126.047 319.945 126.46C320.185 126.867 320.305 127.33 320.305 127.85C320.305 128.37 320.185 128.837 319.945 129.25C319.712 129.657 319.385 129.977 318.965 130.21C318.552 130.443 318.082 130.56 317.555 130.56ZM317.555 129.72C317.895 129.72 318.198 129.643 318.465 129.49C318.738 129.33 318.952 129.11 319.105 128.83C319.258 128.543 319.335 128.217 319.335 127.85C319.335 127.483 319.258 127.16 319.105 126.88C318.952 126.593 318.738 126.373 318.465 126.22C318.198 126.067 317.895 125.99 317.555 125.99C317.215 125.99 316.908 126.067 316.635 126.22C316.368 126.373 316.155 126.593 315.995 126.88C315.842 127.16 315.765 127.483 315.765 127.85C315.765 128.217 315.842 128.543 315.995 128.83C316.155 129.11 316.368 129.33 316.635 129.49C316.908 129.643 317.215 129.72 317.555 129.72ZM324.613 130.19C324.473 130.31 324.299 130.403 324.093 130.47C323.886 130.53 323.673 130.56 323.453 130.56C322.919 130.56 322.506 130.417 322.213 130.13C321.919 129.843 321.773 129.433 321.773 128.9V125.99H320.873V125.2H321.773V124.04H322.733V125.2H324.253V125.99H322.733V128.86C322.733 129.147 322.803 129.367 322.943 129.52C323.089 129.673 323.296 129.75 323.563 129.75C323.856 129.75 324.106 129.667 324.313 129.5L324.613 130.19ZM327.868 130.56C327.341 130.56 326.868 130.443 326.448 130.21C326.028 129.977 325.698 129.657 325.458 129.25C325.224 128.837 325.108 128.37 325.108 127.85C325.108 127.33 325.224 126.867 325.458 126.46C325.698 126.047 326.028 125.727 326.448 125.5C326.868 125.267 327.341 125.15 327.868 125.15C328.394 125.15 328.864 125.267 329.278 125.5C329.698 125.727 330.024 126.047 330.258 126.46C330.498 126.867 330.618 127.33 330.618 127.85C330.618 128.37 330.498 128.837 330.258 129.25C330.024 129.657 329.698 129.977 329.278 130.21C328.864 130.443 328.394 130.56 327.868 130.56ZM327.868 129.72C328.208 129.72 328.511 129.643 328.778 129.49C329.051 129.33 329.264 129.11 329.418 128.83C329.571 128.543 329.648 128.217 329.648 127.85C329.648 127.483 329.571 127.16 329.418 126.88C329.264 126.593 329.051 126.373 328.778 126.22C328.511 126.067 328.208 125.99 327.868 125.99C327.528 125.99 327.221 126.067 326.948 126.22C326.681 126.373 326.468 126.593 326.308 126.88C326.154 127.16 326.078 127.483 326.078 127.85C326.078 128.217 326.154 128.543 326.308 128.83C326.468 129.11 326.681 129.33 326.948 129.49C327.221 129.643 327.528 129.72 327.868 129.72ZM336.811 130.58C336.284 130.58 335.774 130.5 335.281 130.34C334.794 130.173 334.411 129.96 334.131 129.7L334.501 128.92C334.767 129.16 335.107 129.357 335.521 129.51C335.941 129.657 336.371 129.73 336.811 129.73C337.391 129.73 337.824 129.633 338.111 129.44C338.397 129.24 338.541 128.977 338.541 128.65C338.541 128.41 338.461 128.217 338.301 128.07C338.147 127.917 337.954 127.8 337.721 127.72C337.494 127.64 337.171 127.55 336.751 127.45C336.224 127.323 335.797 127.197 335.471 127.07C335.151 126.943 334.874 126.75 334.641 126.49C334.414 126.223 334.301 125.867 334.301 125.42C334.301 125.047 334.397 124.71 334.591 124.41C334.791 124.11 335.091 123.87 335.491 123.69C335.891 123.51 336.387 123.42 336.981 123.42C337.394 123.42 337.801 123.473 338.201 123.58C338.601 123.687 338.944 123.84 339.231 124.04L338.901 124.84C338.607 124.653 338.294 124.513 337.961 124.42C337.627 124.32 337.301 124.27 336.981 124.27C336.414 124.27 335.987 124.373 335.701 124.58C335.421 124.787 335.281 125.053 335.281 125.38C335.281 125.62 335.361 125.817 335.521 125.97C335.681 126.117 335.877 126.233 336.111 126.32C336.351 126.4 336.674 126.487 337.081 126.58C337.607 126.707 338.031 126.833 338.351 126.96C338.671 127.087 338.944 127.28 339.171 127.54C339.404 127.8 339.521 128.15 339.521 128.59C339.521 128.957 339.421 129.293 339.221 129.6C339.021 129.9 338.717 130.14 338.311 130.32C337.904 130.493 337.404 130.58 336.811 130.58ZM343.652 125.15C344.165 125.15 344.625 125.263 345.032 125.49C345.438 125.717 345.755 126.033 345.982 126.44C346.215 126.847 346.332 127.317 346.332 127.85C346.332 128.383 346.215 128.857 345.982 129.27C345.755 129.677 345.438 129.993 345.032 130.22C344.625 130.447 344.165 130.56 343.652 130.56C343.272 130.56 342.922 130.487 342.602 130.34C342.288 130.193 342.022 129.98 341.802 129.7V132.44H340.842V125.2H341.762V126.04C341.975 125.747 342.245 125.527 342.572 125.38C342.898 125.227 343.258 125.15 343.652 125.15ZM343.572 129.72C343.912 129.72 344.215 129.643 344.482 129.49C344.755 129.33 344.968 129.11 345.122 128.83C345.282 128.543 345.362 128.217 345.362 127.85C345.362 127.483 345.282 127.16 345.122 126.88C344.968 126.593 344.755 126.373 344.482 126.22C344.215 126.067 343.912 125.99 343.572 125.99C343.238 125.99 342.935 126.07 342.662 126.23C342.395 126.383 342.182 126.6 342.022 126.88C341.868 127.16 341.792 127.483 341.792 127.85C341.792 128.217 341.868 128.543 342.022 128.83C342.175 129.11 342.388 129.33 342.662 129.49C342.935 129.643 343.238 129.72 343.572 129.72ZM349.928 130.56C349.401 130.56 348.928 130.443 348.508 130.21C348.088 129.977 347.758 129.657 347.518 129.25C347.285 128.837 347.168 128.37 347.168 127.85C347.168 127.33 347.285 126.867 347.518 126.46C347.758 126.047 348.088 125.727 348.508 125.5C348.928 125.267 349.401 125.15 349.928 125.15C350.455 125.15 350.925 125.267 351.338 125.5C351.758 125.727 352.085 126.047 352.318 126.46C352.558 126.867 352.678 127.33 352.678 127.85C352.678 128.37 352.558 128.837 352.318 129.25C352.085 129.657 351.758 129.977 351.338 130.21C350.925 130.443 350.455 130.56 349.928 130.56ZM349.928 129.72C350.268 129.72 350.571 129.643 350.838 129.49C351.111 129.33 351.325 129.11 351.478 128.83C351.631 128.543 351.708 128.217 351.708 127.85C351.708 127.483 351.631 127.16 351.478 126.88C351.325 126.593 351.111 126.373 350.838 126.22C350.571 126.067 350.268 125.99 349.928 125.99C349.588 125.99 349.281 126.067 349.008 126.22C348.741 126.373 348.528 126.593 348.368 126.88C348.215 127.16 348.138 127.483 348.138 127.85C348.138 128.217 348.215 128.543 348.368 128.83C348.528 129.11 348.741 129.33 349.008 129.49C349.281 129.643 349.588 129.72 349.928 129.72ZM354.926 126.09C355.092 125.783 355.339 125.55 355.666 125.39C355.992 125.23 356.389 125.15 356.856 125.15V126.08C356.802 126.073 356.729 126.07 356.636 126.07C356.116 126.07 355.706 126.227 355.406 126.54C355.112 126.847 354.966 127.287 354.966 127.86V130.5H354.006V125.2H354.926V126.09ZM361.234 130.19C361.094 130.31 360.92 130.403 360.714 130.47C360.507 130.53 360.294 130.56 360.074 130.56C359.54 130.56 359.127 130.417 358.834 130.13C358.54 129.843 358.394 129.433 358.394 128.9V125.99H357.494V125.2H358.394V124.04H359.354V125.2H360.874V125.99H359.354V128.86C359.354 129.147 359.424 129.367 359.564 129.52C359.71 129.673 359.917 129.75 360.184 129.75C360.477 129.75 360.727 129.667 360.934 129.5L361.234 130.19ZM363.914 130.56C363.481 130.56 363.064 130.503 362.664 130.39C362.264 130.27 361.951 130.12 361.724 129.94L362.124 129.18C362.358 129.347 362.641 129.48 362.974 129.58C363.308 129.68 363.644 129.73 363.984 129.73C364.824 129.73 365.244 129.49 365.244 129.01C365.244 128.85 365.188 128.723 365.074 128.63C364.961 128.537 364.818 128.47 364.644 128.43C364.478 128.383 364.238 128.333 363.924 128.28C363.498 128.213 363.148 128.137 362.874 128.05C362.608 127.963 362.378 127.817 362.184 127.61C361.991 127.403 361.894 127.113 361.894 126.74C361.894 126.26 362.094 125.877 362.494 125.59C362.894 125.297 363.431 125.15 364.104 125.15C364.458 125.15 364.811 125.193 365.164 125.28C365.518 125.367 365.808 125.483 366.034 125.63L365.624 126.39C365.191 126.11 364.681 125.97 364.094 125.97C363.688 125.97 363.378 126.037 363.164 126.17C362.951 126.303 362.844 126.48 362.844 126.7C362.844 126.873 362.904 127.01 363.024 127.11C363.144 127.21 363.291 127.283 363.464 127.33C363.644 127.377 363.894 127.43 364.214 127.49C364.641 127.563 364.984 127.643 365.244 127.73C365.511 127.81 365.738 127.95 365.924 128.15C366.111 128.35 366.204 128.63 366.204 128.99C366.204 129.47 365.998 129.853 365.584 130.14C365.178 130.42 364.621 130.56 363.914 130.56Z" fill="white"/>
</g>
<path d="M0 88.5H375V87.5H0V88.5Z" fill="#D9DFE7" mask="url(#path-5-inside-1_1474_8286)"/>
<rect y="88" width="375" height="1" fill="#D9DFE7"/>
<defs>
<filter id="filter0_d_1474_8286" x="283" y="0" width="84" height="84" filterUnits="userSpaceOnUse" color-interpolation-filters="sRGB">
<feFlood flood-opacity="0" result="BackgroundImageFix"/>
<feColorMatrix in="SourceAlpha" type="matrix" values="0 0 0 0 0 0 0 0 0 0 0 0 0 0 0 0 0 0 127 0" result="hardAlpha"/>
<feOffset dy="4"/>
<feGaussianBlur stdDeviation="4"/>
<feComposite in2="hardAlpha" operator="out"/>
<feColorMatrix type="matrix" values="0 0 0 0 0 0 0 0 0 0.14902 0 0 0 0 0.352941 0 0 0 0.3 0"/>
<feBlend mode="normal" in2="BackgroundImageFix" result="effect1_dropShadow_1474_8286"/>
<feBlend mode="normal" in="SourceGraphic" in2="effect1_dropShadow_1474_8286" result="shape"/>
</filter>
<linearGradient id="paint0_linear_1474_8286" x1="323.162" y1="4" x2="323.162" y2="71.15" gradientUnits="userSpaceOnUse">
<stop stop-color="#007AFF"/>
<stop offset="1" stop-color="#003FFC"/>
</linearGradient>
<linearGradient id="paint1_linear_1474_8286" x1="-1.26689" y1="44.1" x2="374.979" y2="47.157" gradientUnits="userSpaceOnUse">
<stop stop-color="#0050D2"/>
<stop offset="1" stop-color="#001964"/>
</linearGradient>
</defs>
</svg>
