<svg width="375" height="168" viewBox="0 0 375 168" fill="none" xmlns="http://www.w3.org/2000/svg">
<rect x="292.5" y="1.5" width="65" height="65" rx="32.5" fill="url(#paint0_linear_1543_32801)"/>
<path fill-rule="evenodd" clip-rule="evenodd" d="M312.609 19H310V21.6087V25.5217H312.609V21.6087H316.522V19H312.609ZM332.174 26.8259H317.826V41.1738H332.174V26.8259ZM330.217 28.7824H319.783V39.2172H330.217V28.7824ZM340 19V21.6087V25.5217H337.391V21.6087H333.478V19H337.391H340ZM312.609 49H310V46.3913V42.4783H312.609V46.3913H316.522V49H312.609ZM340 49V46.3913V42.4783H337.391V46.3913H333.478V49H337.391H340Z" fill="white"/>
<rect x="323.043" y="32.043" width="3.91304" height="3.91304" fill="white"/>
<rect x="292.5" y="1.5" width="65" height="65" rx="32.5" stroke="white" stroke-width="3"/>
<rect width="375" height="84" transform="translate(0 84)" fill="url(#paint1_linear_1543_32801)"/>
<path fill-rule="evenodd" clip-rule="evenodd" d="M36.3982 90.9152L26.0644 100.001C25.7056 100.317 25.5 100.771 25.5 101.248L25.5055 101.384C25.575 102.238 26.292 102.91 27.1662 102.91L28.6929 102.909V110.838C28.6929 111.756 29.4388 112.5 30.3591 112.5H34.9293L35.0347 112.494C35.4846 112.442 35.8338 112.061 35.8338 111.598V106.205H39.1662V111.598C39.1662 112.096 39.5712 112.5 40.0707 112.5H44.6409L44.7776 112.494C45.6339 112.425 46.3071 111.71 46.3071 110.838V102.909L47.8338 102.91C48.3121 102.91 48.7673 102.705 49.0837 102.347C49.6922 101.658 49.6259 100.608 48.9356 100.001L38.6018 90.9152C37.9721 90.3616 37.0278 90.3616 36.3982 90.9152Z" fill="white"/>
<path d="M24.4602 124.75H20.7402L19.9702 126.5H18.9402L22.1102 119.5H23.1002L26.2802 126.5H25.2302L24.4602 124.75ZM24.1102 123.95L22.6002 120.52L21.0902 123.95H24.1102ZM29.4456 126.56C28.9056 126.56 28.4223 126.443 27.9956 126.21C27.5756 125.977 27.2456 125.657 27.0056 125.25C26.7656 124.837 26.6456 124.37 26.6456 123.85C26.6456 123.33 26.7656 122.867 27.0056 122.46C27.2456 122.047 27.5756 121.727 27.9956 121.5C28.4223 121.267 28.9056 121.15 29.4456 121.15C29.9256 121.15 30.3523 121.247 30.7256 121.44C31.1056 121.633 31.3989 121.913 31.6056 122.28L30.8756 122.75C30.7089 122.497 30.5023 122.307 30.2556 122.18C30.0089 122.053 29.7356 121.99 29.4356 121.99C29.0889 121.99 28.7756 122.067 28.4956 122.22C28.2223 122.373 28.0056 122.593 27.8456 122.88C27.6923 123.16 27.6156 123.483 27.6156 123.85C27.6156 124.223 27.6923 124.553 27.8456 124.84C28.0056 125.12 28.2223 125.337 28.4956 125.49C28.7756 125.643 29.0889 125.72 29.4356 125.72C29.7356 125.72 30.0089 125.657 30.2556 125.53C30.5023 125.403 30.7089 125.213 30.8756 124.96L31.6056 125.42C31.3989 125.787 31.1056 126.07 30.7256 126.27C30.3523 126.463 29.9256 126.56 29.4456 126.56ZM35.0804 126.56C34.5404 126.56 34.057 126.443 33.6304 126.21C33.2104 125.977 32.8804 125.657 32.6404 125.25C32.4004 124.837 32.2804 124.37 32.2804 123.85C32.2804 123.33 32.4004 122.867 32.6404 122.46C32.8804 122.047 33.2104 121.727 33.6304 121.5C34.057 121.267 34.5404 121.15 35.0804 121.15C35.5604 121.15 35.987 121.247 36.3604 121.44C36.7404 121.633 37.0337 121.913 37.2404 122.28L36.5104 122.75C36.3437 122.497 36.137 122.307 35.8904 122.18C35.6437 122.053 35.3704 121.99 35.0704 121.99C34.7237 121.99 34.4104 122.067 34.1304 122.22C33.857 122.373 33.6404 122.593 33.4804 122.88C33.327 123.16 33.2504 123.483 33.2504 123.85C33.2504 124.223 33.327 124.553 33.4804 124.84C33.6404 125.12 33.857 125.337 34.1304 125.49C34.4104 125.643 34.7237 125.72 35.0704 125.72C35.3704 125.72 35.6437 125.657 35.8904 125.53C36.137 125.403 36.3437 125.213 36.5104 124.96L37.2404 125.42C37.0337 125.787 36.7404 126.07 36.3604 126.27C35.987 126.463 35.5604 126.56 35.0804 126.56ZM43.4232 121.2V126.5H42.5132V125.7C42.3199 125.973 42.0632 126.187 41.7432 126.34C41.4299 126.487 41.0866 126.56 40.7132 126.56C40.0066 126.56 39.4499 126.367 39.0432 125.98C38.6366 125.587 38.4332 125.01 38.4332 124.25V121.2H39.3932V124.14C39.3932 124.653 39.5166 125.043 39.7632 125.31C40.0099 125.57 40.3632 125.7 40.8232 125.7C41.3299 125.7 41.7299 125.547 42.0232 125.24C42.3166 124.933 42.4632 124.5 42.4632 123.94V121.2H43.4232ZM50.0408 123.88C50.0408 123.953 50.0342 124.05 50.0208 124.17H45.7208C45.7808 124.637 45.9842 125.013 46.3308 125.3C46.6842 125.58 47.1208 125.72 47.6408 125.72C48.2742 125.72 48.7842 125.507 49.1708 125.08L49.7008 125.7C49.4608 125.98 49.1608 126.193 48.8008 126.34C48.4475 126.487 48.0508 126.56 47.6108 126.56C47.0508 126.56 46.5542 126.447 46.1208 126.22C45.6875 125.987 45.3508 125.663 45.1108 125.25C44.8775 124.837 44.7608 124.37 44.7608 123.85C44.7608 123.337 44.8742 122.873 45.1008 122.46C45.3342 122.047 45.6508 121.727 46.0508 121.5C46.4575 121.267 46.9142 121.15 47.4208 121.15C47.9275 121.15 48.3775 121.267 48.7708 121.5C49.1708 121.727 49.4808 122.047 49.7008 122.46C49.9275 122.873 50.0408 123.347 50.0408 123.88ZM47.4208 121.96C46.9608 121.96 46.5742 122.1 46.2608 122.38C45.9542 122.66 45.7742 123.027 45.7208 123.48H49.1208C49.0675 123.033 48.8842 122.67 48.5708 122.39C48.2642 122.103 47.8808 121.96 47.4208 121.96ZM51.3739 121.2H52.3339V126.5H51.3739V121.2ZM51.8539 120.18C51.6672 120.18 51.5105 120.12 51.3839 120C51.2639 119.88 51.2039 119.733 51.2039 119.56C51.2039 119.387 51.2639 119.24 51.3839 119.12C51.5105 118.993 51.6672 118.93 51.8539 118.93C52.0405 118.93 52.1939 118.99 52.3139 119.11C52.4405 119.223 52.5039 119.367 52.5039 119.54C52.5039 119.72 52.4405 119.873 52.3139 120C52.1939 120.12 52.0405 120.18 51.8539 120.18ZM54.1668 119.08H55.1268V126.5H54.1668V119.08Z" fill="white"/>
<g opacity="0.5">
<path fill-rule="evenodd" clip-rule="evenodd" d="M108.793 91.2217C108.744 90.8148 108.408 90.5 108.001 90.5C107.559 90.5 107.202 90.8695 107.202 91.3252V92.8746H103.326C102.318 92.8746 101.5 93.7191 101.5 94.7608V110.614C101.5 111.656 102.318 112.5 103.326 112.5H121.674C122.682 112.5 123.5 111.656 123.5 110.614V94.7608C123.5 93.7191 122.682 92.8746 121.674 92.8746H117.8V91.3252L117.793 91.2217C117.744 90.8148 117.408 90.5 117.001 90.5C116.56 90.5 116.202 90.8695 116.202 91.3252V92.8746H108.8V91.3252L108.793 91.2217ZM107.202 94.5249V94.9404L107.208 95.0439C107.257 95.4508 107.593 95.7656 108.001 95.7656C108.442 95.7656 108.8 95.3962 108.8 94.9404V94.5249H116.202V94.9404L116.208 95.0439C116.257 95.4508 116.593 95.7656 117.001 95.7656C117.442 95.7656 117.8 95.3962 117.8 94.9404V94.5249H121.674L121.727 94.5311C121.828 94.5556 121.903 94.6491 121.903 94.7607V98.7633H103.098V94.7607L103.104 94.7066C103.128 94.6025 103.218 94.5249 103.327 94.5249H107.202ZM103.098 100.414V110.614C103.098 110.725 103.173 110.819 103.274 110.843L103.327 110.849H121.674C121.782 110.849 121.873 110.772 121.897 110.668L121.903 110.614V100.414H103.098Z" fill="white"/>
<path d="M90.303 126.58C89.603 126.58 88.9697 126.427 88.403 126.12C87.843 125.807 87.403 125.38 87.083 124.84C86.763 124.293 86.603 123.68 86.603 123C86.603 122.32 86.763 121.71 87.083 121.17C87.403 120.623 87.8464 120.197 88.413 119.89C88.9797 119.577 89.613 119.42 90.313 119.42C90.8597 119.42 91.3597 119.513 91.813 119.7C92.2664 119.88 92.653 120.15 92.973 120.51L92.323 121.14C91.7964 120.587 91.1397 120.31 90.353 120.31C89.833 120.31 89.363 120.427 88.943 120.66C88.523 120.893 88.193 121.217 87.953 121.63C87.7197 122.037 87.603 122.493 87.603 123C87.603 123.507 87.7197 123.967 87.953 124.38C88.193 124.787 88.523 125.107 88.943 125.34C89.363 125.573 89.833 125.69 90.353 125.69C91.133 125.69 91.7897 125.41 92.323 124.85L92.973 125.48C92.653 125.84 92.263 126.113 91.803 126.3C91.3497 126.487 90.8497 126.58 90.303 126.58ZM96.1213 121.15C96.8546 121.15 97.4146 121.33 97.8013 121.69C98.1946 122.05 98.3913 122.587 98.3913 123.3V126.5H97.4813V125.8C97.3213 126.047 97.0913 126.237 96.7913 126.37C96.4979 126.497 96.1479 126.56 95.7413 126.56C95.1479 126.56 94.6713 126.417 94.3113 126.13C93.9579 125.843 93.7813 125.467 93.7813 125C93.7813 124.533 93.9513 124.16 94.2913 123.88C94.6313 123.593 95.1713 123.45 95.9113 123.45H97.4313V123.26C97.4313 122.847 97.3113 122.53 97.0713 122.31C96.8313 122.09 96.4779 121.98 96.0113 121.98C95.6979 121.98 95.3913 122.033 95.0913 122.14C94.7913 122.24 94.5379 122.377 94.3313 122.55L93.9313 121.83C94.2046 121.61 94.5313 121.443 94.9113 121.33C95.2913 121.21 95.6946 121.15 96.1213 121.15ZM95.9013 125.82C96.2679 125.82 96.5846 125.74 96.8513 125.58C97.1179 125.413 97.3113 125.18 97.4313 124.88V124.14H95.9513C95.1379 124.14 94.7313 124.413 94.7313 124.96C94.7313 125.227 94.8346 125.437 95.0413 125.59C95.2479 125.743 95.5346 125.82 95.9013 125.82ZM100.168 119.08H101.128V126.5H100.168V119.08ZM107.751 123.88C107.751 123.953 107.744 124.05 107.731 124.17H103.431C103.491 124.637 103.694 125.013 104.041 125.3C104.394 125.58 104.831 125.72 105.351 125.72C105.984 125.72 106.494 125.507 106.881 125.08L107.411 125.7C107.171 125.98 106.871 126.193 106.511 126.34C106.157 126.487 105.761 126.56 105.321 126.56C104.761 126.56 104.264 126.447 103.831 126.22C103.397 125.987 103.061 125.663 102.821 125.25C102.587 124.837 102.471 124.37 102.471 123.85C102.471 123.337 102.584 122.873 102.811 122.46C103.044 122.047 103.361 121.727 103.761 121.5C104.167 121.267 104.624 121.15 105.131 121.15C105.637 121.15 106.087 121.267 106.481 121.5C106.881 121.727 107.191 122.047 107.411 122.46C107.637 122.873 107.751 123.347 107.751 123.88ZM105.131 121.96C104.671 121.96 104.284 122.1 103.971 122.38C103.664 122.66 103.484 123.027 103.431 123.48H106.831C106.777 123.033 106.594 122.67 106.281 122.39C105.974 122.103 105.591 121.96 105.131 121.96ZM111.914 121.15C112.587 121.15 113.12 121.347 113.514 121.74C113.914 122.127 114.114 122.697 114.114 123.45V126.5H113.154V123.56C113.154 123.047 113.03 122.66 112.784 122.4C112.537 122.14 112.184 122.01 111.724 122.01C111.204 122.01 110.794 122.163 110.494 122.47C110.194 122.77 110.044 123.203 110.044 123.77V126.5H109.084V121.2H110.004V122C110.197 121.727 110.457 121.517 110.784 121.37C111.117 121.223 111.494 121.15 111.914 121.15ZM120.92 119.08V126.5H120V125.66C119.786 125.953 119.516 126.177 119.19 126.33C118.863 126.483 118.503 126.56 118.11 126.56C117.596 126.56 117.136 126.447 116.73 126.22C116.323 125.993 116.003 125.677 115.77 125.27C115.543 124.857 115.43 124.383 115.43 123.85C115.43 123.317 115.543 122.847 115.77 122.44C116.003 122.033 116.323 121.717 116.73 121.49C117.136 121.263 117.596 121.15 118.11 121.15C118.49 121.15 118.84 121.223 119.16 121.37C119.48 121.51 119.746 121.72 119.96 122V119.08H120.92ZM118.19 125.72C118.523 125.72 118.826 125.643 119.1 125.49C119.373 125.33 119.586 125.11 119.74 124.83C119.893 124.543 119.97 124.217 119.97 123.85C119.97 123.483 119.893 123.16 119.74 122.88C119.586 122.593 119.373 122.373 119.1 122.22C118.826 122.067 118.523 121.99 118.19 121.99C117.85 121.99 117.543 122.067 117.27 122.22C117.003 122.373 116.79 122.593 116.63 122.88C116.476 123.16 116.4 123.483 116.4 123.85C116.4 124.217 116.476 124.543 116.63 124.83C116.79 125.11 117.003 125.33 117.27 125.49C117.543 125.643 117.85 125.72 118.19 125.72ZM123.656 122.09C123.823 121.783 124.07 121.55 124.396 121.39C124.723 121.23 125.12 121.15 125.586 121.15V122.08C125.533 122.073 125.46 122.07 125.366 122.07C124.846 122.07 124.436 122.227 124.136 122.54C123.843 122.847 123.696 123.287 123.696 123.86V126.5H122.736V121.2H123.656V122.09ZM126.769 121.2H127.729V126.5H126.769V121.2ZM127.249 120.18C127.063 120.18 126.906 120.12 126.779 120C126.659 119.88 126.599 119.733 126.599 119.56C126.599 119.387 126.659 119.24 126.779 119.12C126.906 118.993 127.063 118.93 127.249 118.93C127.436 118.93 127.589 118.99 127.709 119.11C127.836 119.223 127.899 119.367 127.899 119.54C127.899 119.72 127.836 119.873 127.709 120C127.589 120.12 127.436 120.18 127.249 120.18ZM134.352 123.88C134.352 123.953 134.346 124.05 134.332 124.17H130.032C130.092 124.637 130.296 125.013 130.642 125.3C130.996 125.58 131.432 125.72 131.952 125.72C132.586 125.72 133.096 125.507 133.482 125.08L134.012 125.7C133.772 125.98 133.472 126.193 133.112 126.34C132.759 126.487 132.362 126.56 131.922 126.56C131.362 126.56 130.866 126.447 130.432 126.22C129.999 125.987 129.662 125.663 129.422 125.25C129.189 124.837 129.072 124.37 129.072 123.85C129.072 123.337 129.186 122.873 129.412 122.46C129.646 122.047 129.962 121.727 130.362 121.5C130.769 121.267 131.226 121.15 131.732 121.15C132.239 121.15 132.689 121.267 133.082 121.5C133.482 121.727 133.792 122.047 134.012 122.46C134.239 122.873 134.352 123.347 134.352 123.88ZM131.732 121.96C131.272 121.96 130.886 122.1 130.572 122.38C130.266 122.66 130.086 123.027 130.032 123.48H133.432C133.379 123.033 133.196 122.67 132.882 122.39C132.576 122.103 132.192 121.96 131.732 121.96ZM136.605 122.09C136.772 121.783 137.019 121.55 137.345 121.39C137.672 121.23 138.069 121.15 138.535 121.15V122.08C138.482 122.073 138.409 122.07 138.315 122.07C137.795 122.07 137.385 122.227 137.085 122.54C136.792 122.847 136.645 123.287 136.645 123.86V126.5H135.685V121.2H136.605V122.09Z" fill="white"/>
</g>
<g opacity="0.5">
<path fill-rule="evenodd" clip-rule="evenodd" d="M199.5 94.2123C199.5 93.2656 198.759 92.498 197.845 92.498H188.327H186.672H177.155C176.241 92.498 175.5 93.2656 175.5 94.2123V108.784C175.5 109.731 176.241 110.498 177.155 110.498H186.672H188.327H197.845C198.759 110.498 199.5 109.731 199.5 108.784V94.2123ZM197.844 108.998H188.327V105.697C190.215 105.3 191.635 103.571 191.635 101.498C191.635 99.4254 190.215 97.6964 188.327 97.2984V93.998H197.844L197.891 94.0036C197.982 94.0258 198.05 94.1108 198.05 94.2123V96.7837H196.189C195.275 96.7837 194.534 97.5512 194.534 98.498V104.498C194.534 105.445 195.275 106.212 196.189 106.212H198.05V108.784L198.045 108.833C198.024 108.927 197.941 108.998 197.844 108.998ZM196.189 98.0695H198.05V104.927H196.189L196.115 104.92C195.922 104.883 195.775 104.708 195.775 104.498V98.498L195.782 98.421C195.817 98.2211 195.986 98.0695 196.189 98.0695ZM186.672 97.2975V93.998H177.154C177.056 93.998 176.974 94.0685 176.953 94.1631L176.947 94.2123V96.7837H178.811C179.725 96.7837 180.466 97.5512 180.466 98.4979V104.498C180.466 105.445 179.725 106.212 178.811 106.212H176.947V108.784C176.947 108.885 177.015 108.97 177.107 108.992L177.154 108.998H186.672V105.698C184.782 105.302 183.359 103.572 183.359 101.498C183.359 99.4238 184.782 97.6937 186.672 97.2975ZM176.947 104.926H178.811C179.014 104.926 179.183 104.775 179.218 104.575L179.225 104.498V98.4978C179.225 98.2875 179.078 98.1125 178.885 98.0762L178.811 98.0693H176.947V104.926ZM186.672 104.375C185.474 104.006 184.601 102.858 184.601 101.498C184.601 100.138 185.474 98.9896 186.672 98.6215V104.375ZM188.327 98.623C189.522 98.9926 190.394 100.14 190.394 101.498C190.394 102.856 189.522 104.003 188.327 104.373V98.623Z" fill="white"/>
<path d="M174.203 126.58C173.677 126.58 173.167 126.5 172.673 126.34C172.187 126.173 171.803 125.96 171.523 125.7L171.893 124.92C172.16 125.16 172.5 125.357 172.913 125.51C173.333 125.657 173.763 125.73 174.203 125.73C174.783 125.73 175.217 125.633 175.503 125.44C175.79 125.24 175.933 124.977 175.933 124.65C175.933 124.41 175.853 124.217 175.693 124.07C175.54 123.917 175.347 123.8 175.113 123.72C174.887 123.64 174.563 123.55 174.143 123.45C173.617 123.323 173.19 123.197 172.863 123.07C172.543 122.943 172.267 122.75 172.033 122.49C171.807 122.223 171.693 121.867 171.693 121.42C171.693 121.047 171.79 120.71 171.983 120.41C172.183 120.11 172.483 119.87 172.883 119.69C173.283 119.51 173.78 119.42 174.373 119.42C174.787 119.42 175.193 119.473 175.593 119.58C175.993 119.687 176.337 119.84 176.623 120.04L176.293 120.84C176 120.653 175.687 120.513 175.353 120.42C175.02 120.32 174.693 120.27 174.373 120.27C173.807 120.27 173.38 120.373 173.093 120.58C172.813 120.787 172.673 121.053 172.673 121.38C172.673 121.62 172.753 121.817 172.913 121.97C173.073 122.117 173.27 122.233 173.503 122.32C173.743 122.4 174.067 122.487 174.473 122.58C175 122.707 175.423 122.833 175.743 122.96C176.063 123.087 176.337 123.28 176.563 123.54C176.797 123.8 176.913 124.15 176.913 124.59C176.913 124.957 176.813 125.293 176.613 125.6C176.413 125.9 176.11 126.14 175.703 126.32C175.297 126.493 174.797 126.58 174.203 126.58ZM181.044 121.15C181.558 121.15 182.018 121.263 182.424 121.49C182.831 121.717 183.148 122.033 183.374 122.44C183.608 122.847 183.724 123.317 183.724 123.85C183.724 124.383 183.608 124.857 183.374 125.27C183.148 125.677 182.831 125.993 182.424 126.22C182.018 126.447 181.558 126.56 181.044 126.56C180.664 126.56 180.314 126.487 179.994 126.34C179.681 126.193 179.414 125.98 179.194 125.7V128.44H178.234V121.2H179.154V122.04C179.368 121.747 179.638 121.527 179.964 121.38C180.291 121.227 180.651 121.15 181.044 121.15ZM180.964 125.72C181.304 125.72 181.608 125.643 181.874 125.49C182.148 125.33 182.361 125.11 182.514 124.83C182.674 124.543 182.754 124.217 182.754 123.85C182.754 123.483 182.674 123.16 182.514 122.88C182.361 122.593 182.148 122.373 181.874 122.22C181.608 122.067 181.304 121.99 180.964 121.99C180.631 121.99 180.328 122.07 180.054 122.23C179.788 122.383 179.574 122.6 179.414 122.88C179.261 123.16 179.184 123.483 179.184 123.85C179.184 124.217 179.261 124.543 179.414 124.83C179.568 125.11 179.781 125.33 180.054 125.49C180.328 125.643 180.631 125.72 180.964 125.72ZM187.321 126.56C186.794 126.56 186.321 126.443 185.901 126.21C185.481 125.977 185.151 125.657 184.911 125.25C184.677 124.837 184.561 124.37 184.561 123.85C184.561 123.33 184.677 122.867 184.911 122.46C185.151 122.047 185.481 121.727 185.901 121.5C186.321 121.267 186.794 121.15 187.321 121.15C187.847 121.15 188.317 121.267 188.731 121.5C189.151 121.727 189.477 122.047 189.711 122.46C189.951 122.867 190.071 123.33 190.071 123.85C190.071 124.37 189.951 124.837 189.711 125.25C189.477 125.657 189.151 125.977 188.731 126.21C188.317 126.443 187.847 126.56 187.321 126.56ZM187.321 125.72C187.661 125.72 187.964 125.643 188.231 125.49C188.504 125.33 188.717 125.11 188.871 124.83C189.024 124.543 189.101 124.217 189.101 123.85C189.101 123.483 189.024 123.16 188.871 122.88C188.717 122.593 188.504 122.373 188.231 122.22C187.964 122.067 187.661 121.99 187.321 121.99C186.981 121.99 186.674 122.067 186.401 122.22C186.134 122.373 185.921 122.593 185.761 122.88C185.607 123.16 185.531 123.483 185.531 123.85C185.531 124.217 185.607 124.543 185.761 124.83C185.921 125.11 186.134 125.33 186.401 125.49C186.674 125.643 186.981 125.72 187.321 125.72ZM192.318 122.09C192.485 121.783 192.732 121.55 193.058 121.39C193.385 121.23 193.782 121.15 194.248 121.15V122.08C194.195 122.073 194.122 122.07 194.028 122.07C193.508 122.07 193.098 122.227 192.798 122.54C192.505 122.847 192.358 123.287 192.358 123.86V126.5H191.398V121.2H192.318V122.09ZM198.626 126.19C198.486 126.31 198.313 126.403 198.106 126.47C197.9 126.53 197.686 126.56 197.466 126.56C196.933 126.56 196.52 126.417 196.226 126.13C195.933 125.843 195.786 125.433 195.786 124.9V121.99H194.886V121.2H195.786V120.04H196.746V121.2H198.266V121.99H196.746V124.86C196.746 125.147 196.816 125.367 196.956 125.52C197.103 125.673 197.31 125.75 197.576 125.75C197.87 125.75 198.12 125.667 198.326 125.5L198.626 126.19ZM201.307 126.56C200.874 126.56 200.457 126.503 200.057 126.39C199.657 126.27 199.344 126.12 199.117 125.94L199.517 125.18C199.75 125.347 200.034 125.48 200.367 125.58C200.7 125.68 201.037 125.73 201.377 125.73C202.217 125.73 202.637 125.49 202.637 125.01C202.637 124.85 202.58 124.723 202.467 124.63C202.354 124.537 202.21 124.47 202.037 124.43C201.87 124.383 201.63 124.333 201.317 124.28C200.89 124.213 200.54 124.137 200.267 124.05C200 123.963 199.77 123.817 199.577 123.61C199.384 123.403 199.287 123.113 199.287 122.74C199.287 122.26 199.487 121.877 199.887 121.59C200.287 121.297 200.824 121.15 201.497 121.15C201.85 121.15 202.204 121.193 202.557 121.28C202.91 121.367 203.2 121.483 203.427 121.63L203.017 122.39C202.584 122.11 202.074 121.97 201.487 121.97C201.08 121.97 200.77 122.037 200.557 122.17C200.344 122.303 200.237 122.48 200.237 122.7C200.237 122.873 200.297 123.01 200.417 123.11C200.537 123.21 200.684 123.283 200.857 123.33C201.037 123.377 201.287 123.43 201.607 123.49C202.034 123.563 202.377 123.643 202.637 123.73C202.904 123.81 203.13 123.95 203.317 124.15C203.504 124.35 203.597 124.63 203.597 124.99C203.597 125.47 203.39 125.853 202.977 126.14C202.57 126.42 202.014 126.56 201.307 126.56Z" fill="white"/>
</g>
<g opacity="0.5">
<path fill-rule="evenodd" clip-rule="evenodd" d="M265.96 99.4909L265.374 102.359C264.914 104.639 264.305 106.948 262.93 108.417C261.555 109.887 259.391 110.573 256.119 110.573L254.387 110.556L255.149 106.753H255.388C257.509 106.753 258.942 105.536 259.421 103.331C259.605 102.486 259.746 101.776 259.752 101.746L260.2 99.4899H256.667L264.311 93.1426L269.559 99.4899L265.96 99.4909ZM264.546 90.498L251.5 101.329H257.972C257.972 101.329 257.829 102.053 257.646 102.891C257.354 104.245 256.631 104.824 255.386 104.824H253.662L252.141 112.459L256.116 112.498C264.171 112.498 266.006 108.475 267.156 102.76L267.447 101.333H273.5L264.546 90.498Z" fill="white"/>
<path d="M227.867 126.58C227.167 126.58 226.533 126.427 225.967 126.12C225.407 125.807 224.967 125.38 224.647 124.84C224.327 124.293 224.167 123.68 224.167 123C224.167 122.32 224.327 121.71 224.647 121.17C224.967 120.623 225.41 120.197 225.977 119.89C226.543 119.577 227.177 119.42 227.877 119.42C228.423 119.42 228.923 119.513 229.377 119.7C229.83 119.88 230.217 120.15 230.537 120.51L229.887 121.14C229.36 120.587 228.703 120.31 227.917 120.31C227.397 120.31 226.927 120.427 226.507 120.66C226.087 120.893 225.757 121.217 225.517 121.63C225.283 122.037 225.167 122.493 225.167 123C225.167 123.507 225.283 123.967 225.517 124.38C225.757 124.787 226.087 125.107 226.507 125.34C226.927 125.573 227.397 125.69 227.917 125.69C228.697 125.69 229.353 125.41 229.887 124.85L230.537 125.48C230.217 125.84 229.827 126.113 229.367 126.3C228.913 126.487 228.413 126.58 227.867 126.58ZM233.868 126.56C233.342 126.56 232.868 126.443 232.448 126.21C232.028 125.977 231.698 125.657 231.458 125.25C231.225 124.837 231.108 124.37 231.108 123.85C231.108 123.33 231.225 122.867 231.458 122.46C231.698 122.047 232.028 121.727 232.448 121.5C232.868 121.267 233.342 121.15 233.868 121.15C234.395 121.15 234.865 121.267 235.278 121.5C235.698 121.727 236.025 122.047 236.258 122.46C236.498 122.867 236.618 123.33 236.618 123.85C236.618 124.37 236.498 124.837 236.258 125.25C236.025 125.657 235.698 125.977 235.278 126.21C234.865 126.443 234.395 126.56 233.868 126.56ZM233.868 125.72C234.208 125.72 234.512 125.643 234.778 125.49C235.052 125.33 235.265 125.11 235.418 124.83C235.572 124.543 235.648 124.217 235.648 123.85C235.648 123.483 235.572 123.16 235.418 122.88C235.265 122.593 235.052 122.373 234.778 122.22C234.512 122.067 234.208 121.99 233.868 121.99C233.528 121.99 233.222 122.067 232.948 122.22C232.682 122.373 232.468 122.593 232.308 122.88C232.155 123.16 232.078 123.483 232.078 123.85C232.078 124.217 232.155 124.543 232.308 124.83C232.468 125.11 232.682 125.33 232.948 125.49C233.222 125.643 233.528 125.72 233.868 125.72ZM240.926 126.19C240.786 126.31 240.613 126.403 240.406 126.47C240.199 126.53 239.986 126.56 239.766 126.56C239.233 126.56 238.819 126.417 238.526 126.13C238.233 125.843 238.086 125.433 238.086 124.9V121.99H237.186V121.2H238.086V120.04H239.046V121.2H240.566V121.99H239.046V124.86C239.046 125.147 239.116 125.367 239.256 125.52C239.403 125.673 239.609 125.75 239.876 125.75C240.169 125.75 240.419 125.667 240.626 125.5L240.926 126.19ZM246.701 123.88C246.701 123.953 246.694 124.05 246.681 124.17H242.381C242.441 124.637 242.644 125.013 242.991 125.3C243.344 125.58 243.781 125.72 244.301 125.72C244.934 125.72 245.444 125.507 245.831 125.08L246.361 125.7C246.121 125.98 245.821 126.193 245.461 126.34C245.108 126.487 244.711 126.56 244.271 126.56C243.711 126.56 243.214 126.447 242.781 126.22C242.348 125.987 242.011 125.663 241.771 125.25C241.538 124.837 241.421 124.37 241.421 123.85C241.421 123.337 241.534 122.873 241.761 122.46C241.994 122.047 242.311 121.727 242.711 121.5C243.118 121.267 243.574 121.15 244.081 121.15C244.588 121.15 245.038 121.267 245.431 121.5C245.831 121.727 246.141 122.047 246.361 122.46C246.588 122.873 246.701 123.347 246.701 123.88ZM244.081 121.96C243.621 121.96 243.234 122.1 242.921 122.38C242.614 122.66 242.434 123.027 242.381 123.48H245.781C245.728 123.033 245.544 122.67 245.231 122.39C244.924 122.103 244.541 121.96 244.081 121.96ZM249.554 126.56C249.121 126.56 248.704 126.503 248.304 126.39C247.904 126.27 247.591 126.12 247.364 125.94L247.764 125.18C247.997 125.347 248.281 125.48 248.614 125.58C248.947 125.68 249.284 125.73 249.624 125.73C250.464 125.73 250.884 125.49 250.884 125.01C250.884 124.85 250.827 124.723 250.714 124.63C250.601 124.537 250.457 124.47 250.284 124.43C250.117 124.383 249.877 124.333 249.564 124.28C249.137 124.213 248.787 124.137 248.514 124.05C248.247 123.963 248.017 123.817 247.824 123.61C247.631 123.403 247.534 123.113 247.534 122.74C247.534 122.26 247.734 121.877 248.134 121.59C248.534 121.297 249.071 121.15 249.744 121.15C250.097 121.15 250.451 121.193 250.804 121.28C251.157 121.367 251.447 121.483 251.674 121.63L251.264 122.39C250.831 122.11 250.321 121.97 249.734 121.97C249.327 121.97 249.017 122.037 248.804 122.17C248.591 122.303 248.484 122.48 248.484 122.7C248.484 122.873 248.544 123.01 248.664 123.11C248.784 123.21 248.931 123.283 249.104 123.33C249.284 123.377 249.534 123.43 249.854 123.49C250.281 123.563 250.624 123.643 250.884 123.73C251.151 123.81 251.377 123.95 251.564 124.15C251.751 124.35 251.844 124.63 251.844 124.99C251.844 125.47 251.637 125.853 251.224 126.14C250.817 126.42 250.261 126.56 249.554 126.56ZM260.579 122.87C260.986 122.983 261.306 123.19 261.539 123.49C261.773 123.783 261.889 124.157 261.889 124.61C261.889 125.217 261.659 125.683 261.199 126.01C260.746 126.337 260.083 126.5 259.209 126.5H255.869V119.5H259.009C259.809 119.5 260.426 119.66 260.859 119.98C261.299 120.3 261.519 120.743 261.519 121.31C261.519 121.677 261.433 121.993 261.259 122.26C261.093 122.527 260.866 122.73 260.579 122.87ZM256.869 120.31V122.55H258.919C259.433 122.55 259.826 122.457 260.099 122.27C260.379 122.077 260.519 121.797 260.519 121.43C260.519 121.063 260.379 120.787 260.099 120.6C259.826 120.407 259.433 120.31 258.919 120.31H256.869ZM259.169 125.69C259.736 125.69 260.163 125.597 260.449 125.41C260.736 125.223 260.879 124.93 260.879 124.53C260.879 123.75 260.309 123.36 259.169 123.36H256.869V125.69H259.169ZM265.568 126.56C265.041 126.56 264.568 126.443 264.148 126.21C263.728 125.977 263.398 125.657 263.158 125.25C262.924 124.837 262.808 124.37 262.808 123.85C262.808 123.33 262.924 122.867 263.158 122.46C263.398 122.047 263.728 121.727 264.148 121.5C264.568 121.267 265.041 121.15 265.568 121.15C266.094 121.15 266.564 121.267 266.978 121.5C267.398 121.727 267.724 122.047 267.958 122.46C268.198 122.867 268.318 123.33 268.318 123.85C268.318 124.37 268.198 124.837 267.958 125.25C267.724 125.657 267.398 125.977 266.978 126.21C266.564 126.443 266.094 126.56 265.568 126.56ZM265.568 125.72C265.908 125.72 266.211 125.643 266.478 125.49C266.751 125.33 266.964 125.11 267.118 124.83C267.271 124.543 267.348 124.217 267.348 123.85C267.348 123.483 267.271 123.16 267.118 122.88C266.964 122.593 266.751 122.373 266.478 122.22C266.211 122.067 265.908 121.99 265.568 121.99C265.228 121.99 264.921 122.067 264.648 122.22C264.381 122.373 264.168 122.593 264.008 122.88C263.854 123.16 263.778 123.483 263.778 123.85C263.778 124.217 263.854 124.543 264.008 124.83C264.168 125.11 264.381 125.33 264.648 125.49C264.921 125.643 265.228 125.72 265.568 125.72ZM271.915 126.56C271.389 126.56 270.915 126.443 270.495 126.21C270.075 125.977 269.745 125.657 269.505 125.25C269.272 124.837 269.155 124.37 269.155 123.85C269.155 123.33 269.272 122.867 269.505 122.46C269.745 122.047 270.075 121.727 270.495 121.5C270.915 121.267 271.389 121.15 271.915 121.15C272.442 121.15 272.912 121.267 273.325 121.5C273.745 121.727 274.072 122.047 274.305 122.46C274.545 122.867 274.665 123.33 274.665 123.85C274.665 124.37 274.545 124.837 274.305 125.25C274.072 125.657 273.745 125.977 273.325 126.21C272.912 126.443 272.442 126.56 271.915 126.56ZM271.915 125.72C272.255 125.72 272.559 125.643 272.825 125.49C273.099 125.33 273.312 125.11 273.465 124.83C273.619 124.543 273.695 124.217 273.695 123.85C273.695 123.483 273.619 123.16 273.465 122.88C273.312 122.593 273.099 122.373 272.825 122.22C272.559 122.067 272.255 121.99 271.915 121.99C271.575 121.99 271.269 122.067 270.995 122.22C270.729 122.373 270.515 122.593 270.355 122.88C270.202 123.16 270.125 123.483 270.125 123.85C270.125 124.217 270.202 124.543 270.355 124.83C270.515 125.11 270.729 125.33 270.995 125.49C271.269 125.643 271.575 125.72 271.915 125.72ZM277.513 126.56C277.08 126.56 276.663 126.503 276.263 126.39C275.863 126.27 275.55 126.12 275.323 125.94L275.723 125.18C275.956 125.347 276.24 125.48 276.573 125.58C276.906 125.68 277.243 125.73 277.583 125.73C278.423 125.73 278.843 125.49 278.843 125.01C278.843 124.85 278.786 124.723 278.673 124.63C278.56 124.537 278.416 124.47 278.243 124.43C278.076 124.383 277.836 124.333 277.523 124.28C277.096 124.213 276.746 124.137 276.473 124.05C276.206 123.963 275.976 123.817 275.783 123.61C275.59 123.403 275.493 123.113 275.493 122.74C275.493 122.26 275.693 121.877 276.093 121.59C276.493 121.297 277.03 121.15 277.703 121.15C278.056 121.15 278.41 121.193 278.763 121.28C279.116 121.367 279.406 121.483 279.633 121.63L279.223 122.39C278.79 122.11 278.28 121.97 277.693 121.97C277.286 121.97 276.976 122.037 276.763 122.17C276.55 122.303 276.443 122.48 276.443 122.7C276.443 122.873 276.503 123.01 276.623 123.11C276.743 123.21 276.89 123.283 277.063 123.33C277.243 123.377 277.493 123.43 277.813 123.49C278.24 123.563 278.583 123.643 278.843 123.73C279.11 123.81 279.336 123.95 279.523 124.15C279.71 124.35 279.803 124.63 279.803 124.99C279.803 125.47 279.596 125.853 279.183 126.14C278.776 126.42 278.22 126.56 277.513 126.56ZM283.983 126.19C283.843 126.31 283.669 126.403 283.463 126.47C283.256 126.53 283.043 126.56 282.823 126.56C282.289 126.56 281.876 126.417 281.583 126.13C281.289 125.843 281.143 125.433 281.143 124.9V121.99H280.243V121.2H281.143V120.04H282.103V121.2H283.623V121.99H282.103V124.86C282.103 125.147 282.173 125.367 282.313 125.52C282.459 125.673 282.666 125.75 282.933 125.75C283.226 125.75 283.476 125.667 283.683 125.5L283.983 126.19ZM289.758 123.88C289.758 123.953 289.751 124.05 289.738 124.17H285.438C285.498 124.637 285.701 125.013 286.048 125.3C286.401 125.58 286.838 125.72 287.358 125.72C287.991 125.72 288.501 125.507 288.888 125.08L289.418 125.7C289.178 125.98 288.878 126.193 288.518 126.34C288.164 126.487 287.768 126.56 287.328 126.56C286.768 126.56 286.271 126.447 285.838 126.22C285.404 125.987 285.068 125.663 284.828 125.25C284.594 124.837 284.478 124.37 284.478 123.85C284.478 123.337 284.591 122.873 284.818 122.46C285.051 122.047 285.368 121.727 285.768 121.5C286.174 121.267 286.631 121.15 287.138 121.15C287.644 121.15 288.094 121.267 288.488 121.5C288.888 121.727 289.198 122.047 289.418 122.46C289.644 122.873 289.758 123.347 289.758 123.88ZM287.138 121.96C286.678 121.96 286.291 122.1 285.978 122.38C285.671 122.66 285.491 123.027 285.438 123.48H288.838C288.784 123.033 288.601 122.67 288.288 122.39C287.981 122.103 287.598 121.96 287.138 121.96ZM287.738 119.13H288.958L287.278 120.43H286.378L287.738 119.13ZM295.881 123.88C295.881 123.953 295.874 124.05 295.861 124.17H291.561C291.621 124.637 291.824 125.013 292.171 125.3C292.524 125.58 292.961 125.72 293.481 125.72C294.114 125.72 294.624 125.507 295.011 125.08L295.541 125.7C295.301 125.98 295.001 126.193 294.641 126.34C294.287 126.487 293.891 126.56 293.451 126.56C292.891 126.56 292.394 126.447 291.961 126.22C291.527 125.987 291.191 125.663 290.951 125.25C290.717 124.837 290.601 124.37 290.601 123.85C290.601 123.337 290.714 122.873 290.941 122.46C291.174 122.047 291.491 121.727 291.891 121.5C292.297 121.267 292.754 121.15 293.261 121.15C293.767 121.15 294.217 121.267 294.611 121.5C295.011 121.727 295.321 122.047 295.541 122.46C295.767 122.873 295.881 123.347 295.881 123.88ZM293.261 121.96C292.801 121.96 292.414 122.1 292.101 122.38C291.794 122.66 291.614 123.027 291.561 123.48H294.961C294.907 123.033 294.724 122.67 294.411 122.39C294.104 122.103 293.721 121.96 293.261 121.96ZM298.734 126.56C298.3 126.56 297.884 126.503 297.484 126.39C297.084 126.27 296.77 126.12 296.544 125.94L296.944 125.18C297.177 125.347 297.46 125.48 297.794 125.58C298.127 125.68 298.464 125.73 298.804 125.73C299.644 125.73 300.064 125.49 300.064 125.01C300.064 124.85 300.007 124.723 299.894 124.63C299.78 124.537 299.637 124.47 299.464 124.43C299.297 124.383 299.057 124.333 298.744 124.28C298.317 124.213 297.967 124.137 297.694 124.05C297.427 123.963 297.197 123.817 297.004 123.61C296.81 123.403 296.714 123.113 296.714 122.74C296.714 122.26 296.914 121.877 297.314 121.59C297.714 121.297 298.25 121.15 298.924 121.15C299.277 121.15 299.63 121.193 299.984 121.28C300.337 121.367 300.627 121.483 300.854 121.63L300.444 122.39C300.01 122.11 299.5 121.97 298.914 121.97C298.507 121.97 298.197 122.037 297.984 122.17C297.77 122.303 297.664 122.48 297.664 122.7C297.664 122.873 297.724 123.01 297.844 123.11C297.964 123.21 298.11 123.283 298.284 123.33C298.464 123.377 298.714 123.43 299.034 123.49C299.46 123.563 299.804 123.643 300.064 123.73C300.33 123.81 300.557 123.95 300.744 124.15C300.93 124.35 301.024 124.63 301.024 124.99C301.024 125.47 300.817 125.853 300.404 126.14C299.997 126.42 299.44 126.56 298.734 126.56Z" fill="white"/>
</g>
<g opacity="0.5">
<path fill-rule="evenodd" clip-rule="evenodd" d="M339.91 107.414L338.893 102.244L343.402 99.0887H338.272L337.502 95.1759L335.533 99.0887H330.66L334.014 102.108L331.258 107.585L336.233 104.105L339.91 107.414ZM340.593 103.03L342.303 111.72L336.123 106.158L327.058 112.5L332.08 102.519L326.5 97.4978H334.606L338.127 90.5L339.504 97.4978H348.5L340.593 103.03Z" fill="white"/>
<path d="M309.556 119.5H310.556V125.63H314.346V126.5H309.556V119.5ZM317.555 126.56C317.028 126.56 316.555 126.443 316.135 126.21C315.715 125.977 315.385 125.657 315.145 125.25C314.912 124.837 314.795 124.37 314.795 123.85C314.795 123.33 314.912 122.867 315.145 122.46C315.385 122.047 315.715 121.727 316.135 121.5C316.555 121.267 317.028 121.15 317.555 121.15C318.082 121.15 318.552 121.267 318.965 121.5C319.385 121.727 319.712 122.047 319.945 122.46C320.185 122.867 320.305 123.33 320.305 123.85C320.305 124.37 320.185 124.837 319.945 125.25C319.712 125.657 319.385 125.977 318.965 126.21C318.552 126.443 318.082 126.56 317.555 126.56ZM317.555 125.72C317.895 125.72 318.198 125.643 318.465 125.49C318.738 125.33 318.952 125.11 319.105 124.83C319.258 124.543 319.335 124.217 319.335 123.85C319.335 123.483 319.258 123.16 319.105 122.88C318.952 122.593 318.738 122.373 318.465 122.22C318.198 122.067 317.895 121.99 317.555 121.99C317.215 121.99 316.908 122.067 316.635 122.22C316.368 122.373 316.155 122.593 315.995 122.88C315.842 123.16 315.765 123.483 315.765 123.85C315.765 124.217 315.842 124.543 315.995 124.83C316.155 125.11 316.368 125.33 316.635 125.49C316.908 125.643 317.215 125.72 317.555 125.72ZM324.613 126.19C324.473 126.31 324.299 126.403 324.093 126.47C323.886 126.53 323.673 126.56 323.453 126.56C322.919 126.56 322.506 126.417 322.213 126.13C321.919 125.843 321.773 125.433 321.773 124.9V121.99H320.873V121.2H321.773V120.04H322.733V121.2H324.253V121.99H322.733V124.86C322.733 125.147 322.803 125.367 322.943 125.52C323.089 125.673 323.296 125.75 323.563 125.75C323.856 125.75 324.106 125.667 324.313 125.5L324.613 126.19ZM327.868 126.56C327.341 126.56 326.868 126.443 326.448 126.21C326.028 125.977 325.698 125.657 325.458 125.25C325.224 124.837 325.108 124.37 325.108 123.85C325.108 123.33 325.224 122.867 325.458 122.46C325.698 122.047 326.028 121.727 326.448 121.5C326.868 121.267 327.341 121.15 327.868 121.15C328.394 121.15 328.864 121.267 329.278 121.5C329.698 121.727 330.024 122.047 330.258 122.46C330.498 122.867 330.618 123.33 330.618 123.85C330.618 124.37 330.498 124.837 330.258 125.25C330.024 125.657 329.698 125.977 329.278 126.21C328.864 126.443 328.394 126.56 327.868 126.56ZM327.868 125.72C328.208 125.72 328.511 125.643 328.778 125.49C329.051 125.33 329.264 125.11 329.418 124.83C329.571 124.543 329.648 124.217 329.648 123.85C329.648 123.483 329.571 123.16 329.418 122.88C329.264 122.593 329.051 122.373 328.778 122.22C328.511 122.067 328.208 121.99 327.868 121.99C327.528 121.99 327.221 122.067 326.948 122.22C326.681 122.373 326.468 122.593 326.308 122.88C326.154 123.16 326.078 123.483 326.078 123.85C326.078 124.217 326.154 124.543 326.308 124.83C326.468 125.11 326.681 125.33 326.948 125.49C327.221 125.643 327.528 125.72 327.868 125.72ZM336.811 126.58C336.284 126.58 335.774 126.5 335.281 126.34C334.794 126.173 334.411 125.96 334.131 125.7L334.501 124.92C334.767 125.16 335.107 125.357 335.521 125.51C335.941 125.657 336.371 125.73 336.811 125.73C337.391 125.73 337.824 125.633 338.111 125.44C338.397 125.24 338.541 124.977 338.541 124.65C338.541 124.41 338.461 124.217 338.301 124.07C338.147 123.917 337.954 123.8 337.721 123.72C337.494 123.64 337.171 123.55 336.751 123.45C336.224 123.323 335.797 123.197 335.471 123.07C335.151 122.943 334.874 122.75 334.641 122.49C334.414 122.223 334.301 121.867 334.301 121.42C334.301 121.047 334.397 120.71 334.591 120.41C334.791 120.11 335.091 119.87 335.491 119.69C335.891 119.51 336.387 119.42 336.981 119.42C337.394 119.42 337.801 119.473 338.201 119.58C338.601 119.687 338.944 119.84 339.231 120.04L338.901 120.84C338.607 120.653 338.294 120.513 337.961 120.42C337.627 120.32 337.301 120.27 336.981 120.27C336.414 120.27 335.987 120.373 335.701 120.58C335.421 120.787 335.281 121.053 335.281 121.38C335.281 121.62 335.361 121.817 335.521 121.97C335.681 122.117 335.877 122.233 336.111 122.32C336.351 122.4 336.674 122.487 337.081 122.58C337.607 122.707 338.031 122.833 338.351 122.96C338.671 123.087 338.944 123.28 339.171 123.54C339.404 123.8 339.521 124.15 339.521 124.59C339.521 124.957 339.421 125.293 339.221 125.6C339.021 125.9 338.717 126.14 338.311 126.32C337.904 126.493 337.404 126.58 336.811 126.58ZM343.652 121.15C344.165 121.15 344.625 121.263 345.032 121.49C345.438 121.717 345.755 122.033 345.982 122.44C346.215 122.847 346.332 123.317 346.332 123.85C346.332 124.383 346.215 124.857 345.982 125.27C345.755 125.677 345.438 125.993 345.032 126.22C344.625 126.447 344.165 126.56 343.652 126.56C343.272 126.56 342.922 126.487 342.602 126.34C342.288 126.193 342.022 125.98 341.802 125.7V128.44H340.842V121.2H341.762V122.04C341.975 121.747 342.245 121.527 342.572 121.38C342.898 121.227 343.258 121.15 343.652 121.15ZM343.572 125.72C343.912 125.72 344.215 125.643 344.482 125.49C344.755 125.33 344.968 125.11 345.122 124.83C345.282 124.543 345.362 124.217 345.362 123.85C345.362 123.483 345.282 123.16 345.122 122.88C344.968 122.593 344.755 122.373 344.482 122.22C344.215 122.067 343.912 121.99 343.572 121.99C343.238 121.99 342.935 122.07 342.662 122.23C342.395 122.383 342.182 122.6 342.022 122.88C341.868 123.16 341.792 123.483 341.792 123.85C341.792 124.217 341.868 124.543 342.022 124.83C342.175 125.11 342.388 125.33 342.662 125.49C342.935 125.643 343.238 125.72 343.572 125.72ZM349.928 126.56C349.401 126.56 348.928 126.443 348.508 126.21C348.088 125.977 347.758 125.657 347.518 125.25C347.285 124.837 347.168 124.37 347.168 123.85C347.168 123.33 347.285 122.867 347.518 122.46C347.758 122.047 348.088 121.727 348.508 121.5C348.928 121.267 349.401 121.15 349.928 121.15C350.455 121.15 350.925 121.267 351.338 121.5C351.758 121.727 352.085 122.047 352.318 122.46C352.558 122.867 352.678 123.33 352.678 123.85C352.678 124.37 352.558 124.837 352.318 125.25C352.085 125.657 351.758 125.977 351.338 126.21C350.925 126.443 350.455 126.56 349.928 126.56ZM349.928 125.72C350.268 125.72 350.571 125.643 350.838 125.49C351.111 125.33 351.325 125.11 351.478 124.83C351.631 124.543 351.708 124.217 351.708 123.85C351.708 123.483 351.631 123.16 351.478 122.88C351.325 122.593 351.111 122.373 350.838 122.22C350.571 122.067 350.268 121.99 349.928 121.99C349.588 121.99 349.281 122.067 349.008 122.22C348.741 122.373 348.528 122.593 348.368 122.88C348.215 123.16 348.138 123.483 348.138 123.85C348.138 124.217 348.215 124.543 348.368 124.83C348.528 125.11 348.741 125.33 349.008 125.49C349.281 125.643 349.588 125.72 349.928 125.72ZM354.926 122.09C355.092 121.783 355.339 121.55 355.666 121.39C355.992 121.23 356.389 121.15 356.856 121.15V122.08C356.802 122.073 356.729 122.07 356.636 122.07C356.116 122.07 355.706 122.227 355.406 122.54C355.112 122.847 354.966 123.287 354.966 123.86V126.5H354.006V121.2H354.926V122.09ZM361.234 126.19C361.094 126.31 360.92 126.403 360.714 126.47C360.507 126.53 360.294 126.56 360.074 126.56C359.54 126.56 359.127 126.417 358.834 126.13C358.54 125.843 358.394 125.433 358.394 124.9V121.99H357.494V121.2H358.394V120.04H359.354V121.2H360.874V121.99H359.354V124.86C359.354 125.147 359.424 125.367 359.564 125.52C359.71 125.673 359.917 125.75 360.184 125.75C360.477 125.75 360.727 125.667 360.934 125.5L361.234 126.19ZM363.914 126.56C363.481 126.56 363.064 126.503 362.664 126.39C362.264 126.27 361.951 126.12 361.724 125.94L362.124 125.18C362.358 125.347 362.641 125.48 362.974 125.58C363.308 125.68 363.644 125.73 363.984 125.73C364.824 125.73 365.244 125.49 365.244 125.01C365.244 124.85 365.188 124.723 365.074 124.63C364.961 124.537 364.818 124.47 364.644 124.43C364.478 124.383 364.238 124.333 363.924 124.28C363.498 124.213 363.148 124.137 362.874 124.05C362.608 123.963 362.378 123.817 362.184 123.61C361.991 123.403 361.894 123.113 361.894 122.74C361.894 122.26 362.094 121.877 362.494 121.59C362.894 121.297 363.431 121.15 364.104 121.15C364.458 121.15 364.811 121.193 365.164 121.28C365.518 121.367 365.808 121.483 366.034 121.63L365.624 122.39C365.191 122.11 364.681 121.97 364.094 121.97C363.688 121.97 363.378 122.037 363.164 122.17C362.951 122.303 362.844 122.48 362.844 122.7C362.844 122.873 362.904 123.01 363.024 123.11C363.144 123.21 363.291 123.283 363.464 123.33C363.644 123.377 363.894 123.43 364.214 123.49C364.641 123.563 364.984 123.643 365.244 123.73C365.511 123.81 365.738 123.95 365.924 124.15C366.111 124.35 366.204 124.63 366.204 124.99C366.204 125.47 365.998 125.853 365.584 126.14C365.178 126.42 364.621 126.56 363.914 126.56Z" fill="white"/>
</g>
<path d="M0 84.5H375V83.5H0V84.5Z" fill="#324B6F" mask="url(#path-4-inside-1_1543_32801)"/>
<rect y="84" width="375" height="1" fill="#324B6F"/>
<defs>
<linearGradient id="paint0_linear_1543_32801" x1="323.162" y1="-8.75596e-07" x2="323.162" y2="67.15" gradientUnits="userSpaceOnUse">
<stop stop-color="#207DFF"/>
<stop offset="1" stop-color="#207DFF"/>
</linearGradient>
<linearGradient id="paint1_linear_1543_32801" x1="-2.72412e-06" y1="42" x2="375" y2="42" gradientUnits="userSpaceOnUse">
<stop stop-color="#121C2B"/>
<stop offset="1" stop-color="#121C2B"/>
</linearGradient>
</defs>
</svg>
