<svg width="10" height="11" viewBox="0 0 10 11" fill="none" xmlns="http://www.w3.org/2000/svg">
<g id="Flag">
<g id="Fill 1 + Fill 3 + Fill 5 + Fill 7 Mask">
<rect id="Mask" y="0.5" width="10" height="10" fill="#82C3D2"/>
<mask id="mask0_4311_6298" style="mask-type:luminance" maskUnits="userSpaceOnUse" x="0" y="0" width="10" height="11">
<rect id="Mask_2" y="0.5" width="10" height="10" fill="white"/>
</mask>
<g mask="url(#mask0_4311_6298)">
<path id="Fill 1" fill-rule="evenodd" clip-rule="evenodd" d="M9.46855 1.4887C8.96039 1.55222 8.61564 1.33865 8.20514 1.23602C7.79463 1.1334 7.9338 0.983345 7.44708 0.983345C6.96035 0.983345 6.83401 1.23602 6.43634 1.23602C6.03867 1.23602 5.76809 1.43235 5.67828 0.983345C5.58847 0.534343 6.18363 -0.027393 6.18363 -0.027393H7.19437L8.1849 -0.522644C8.9488 -0.144887 9.63989 0.365018 10.2266 0.983345C10.2266 0.983345 9.97672 1.42518 9.46855 1.4887Z" fill="#73AF00"/>
<path id="Fill 3" fill-rule="evenodd" clip-rule="evenodd" d="M4.41493 -0.0274057C4.41493 -0.0274057 4.41559 0.477318 4.16226 0.730655C3.90892 0.983992 3.89499 0.492546 3.4042 0.983332C2.9134 1.47412 3.15227 1.74061 2.64614 2.24675C2.14 2.75288 2.21421 2.72764 1.38272 3.00481C0.551226 3.28198 -0.38605 3.25749 -0.38605 3.25749V4.01555C-0.38605 4.01555 -0.0285134 4.07744 0.119305 4.5209C0.267123 4.96436 0.299397 5.41157 0.119305 5.53164C-0.0607873 5.6517 -0.638698 5.02626 -0.638698 5.02626L-1.39676 4.5209L-1.83643 3.19938C-1.07965 1.39595 0.366973 -0.0296955 2.18122 -0.760193L2.89884 -0.280083L4.41493 -0.0274057Z" fill="#73AF00"/>
<path id="Fill 5" fill-rule="evenodd" clip-rule="evenodd" d="M4.92062 7.0477C5.10419 7.35364 5.02584 7.66696 4.66795 8.31115C4.31006 8.95534 3.81283 9.04949 3.65718 9.32186C3.50153 9.59423 3.99776 9.56905 3.65718 10.0799C3.31661 10.5908 2.64644 10.838 2.64644 10.838V12.1014L1.88844 11.8487L1.38306 10.5853C1.38306 10.5853 1.63999 8.6237 1.38306 8.05844C1.12612 7.49319 0.485329 8.06696 0.119641 7.80577C-0.246046 7.54457 -0.385742 6.79506 -0.385742 6.79506V6.03697L0.119641 5.53161C0.119641 5.53161 0.568957 4.7118 0.877702 4.77355C1.18645 4.8353 0.62944 5.44934 1.38306 5.78429C2.13667 6.11924 2.64416 5.53046 3.15183 5.78429C3.65949 6.03812 3.50336 6.75733 3.90989 7.0477C4.31641 7.33808 4.73706 6.74177 4.92062 7.0477Z" fill="#73AF00"/>
<path id="Fill 7" fill-rule="evenodd" clip-rule="evenodd" d="M11.3131 2.45645C12.6925 4.91733 12.5353 7.95184 10.9088 10.2568L10.2266 9.57452V8.56378L9.72123 7.55304C9.72123 7.55304 9.33234 7.00817 9.21588 6.5423C9.09941 6.07644 9.40895 5.9177 9.21588 5.53157C9.0228 5.14543 8.93895 5.09494 8.45782 5.02621C7.97668 4.95748 8.34362 5.4419 7.44708 5.27889C6.55053 5.11588 6.12211 5.07558 5.67831 4.52083C5.23451 3.96607 5.32439 3.25826 5.42563 2.75206C5.52687 2.24585 6.18369 1.994 6.18369 1.994C6.18369 1.994 7.34964 1.86269 7.69978 1.994C8.04993 2.1253 7.54242 2.4207 8.20514 2.75206C8.86786 3.08342 8.95294 3.06876 9.72123 3.00474C10.4895 2.94071 11.2373 2.49938 11.2373 2.49938L11.3131 2.45645Z" fill="#73AF00"/>
</g>
</g>
</g>
</svg>
