<svg width="20" height="20" viewBox="0 0 20 20" fill="none" xmlns="http://www.w3.org/2000/svg">
<g id="Sport">
<path id="Fill 1" fill-rule="evenodd" clip-rule="evenodd" d="M10.0274 0C4.54955 0 0.108643 4.444 0.108643 9.925C0.108643 15.407 4.54955 19.851 10.0274 19.851C15.5063 19.851 19.9462 15.407 19.9462 9.925C19.9462 4.444 15.5063 0 10.0274 0Z" fill="#E4E2E3"/>
<path id="Fill 3" fill-rule="evenodd" clip-rule="evenodd" d="M18.9232 8.39589C18.9232 12.8459 15.3183 16.4539 10.8704 16.4539C6.42347 16.4539 2.81854 12.8459 2.81854 8.39589C2.81854 3.94589 6.42347 0.337891 10.8704 0.337891C15.3183 0.337891 18.9232 3.94589 18.9232 8.39589Z" fill="white"/>
<path id="Fill 5" fill-rule="evenodd" clip-rule="evenodd" d="M17.6401 3.54427C18.956 5.23027 19.749 7.35027 19.749 9.62427C19.749 14.9433 15.4391 19.2553 10.1232 19.2553C4.80731 19.2553 0.497402 14.9433 0.497402 9.62427C0.497402 5.83327 2.68536 2.55427 5.86729 0.982266C5.91629 0.957266 5.98329 0.904266 6.04329 0.822266C2.49436 2.35827 0.000411987 5.87726 0.000411987 9.99327C0.000411987 15.5193 4.47732 19.9993 10.0002 19.9993C15.5221 19.9993 20 15.5193 20 9.99327C20 7.53526 19.11 5.28627 17.6401 3.54427Z" fill="#00265A"/>
<path id="Fill 8" fill-rule="evenodd" clip-rule="evenodd" d="M16.3873 7.37508C15.9713 6.47108 15.3004 5.16208 14.4814 4.08808C14.6644 3.58308 14.8814 3.06708 15.1294 2.59308L16.8233 2.69108C15.8413 1.76708 14.6734 1.04308 13.3794 0.578078L14.3724 2.25308C13.9054 2.55408 13.3864 2.94108 12.8764 3.38408C11.8784 3.27108 10.3845 3.16108 8.97548 3.29508C8.1805 3.00408 7.34551 2.76908 6.55953 2.61408L7.47251 0.330078C4.87756 1.02108 2.70261 2.73008 1.40363 5.01208L1.73763 5.74908L5.86554 3.18908C6.50353 3.50308 7.16652 3.90408 7.7865 4.36608L7.12452 7.86208C6.04454 8.72008 4.90956 9.77408 3.94058 10.8891L0.727649 9.38408L0.14566 10.7881C0.375656 13.4391 1.64663 15.7881 3.54759 17.4311L4.75157 17.1271L4.39857 11.7101C5.45955 10.9961 6.69953 10.3201 7.9425 9.78908C9.67947 10.4021 11.3134 11.2941 12.2974 11.8801C12.6364 12.9221 12.9414 14.0561 13.1624 15.1641L9.10448 18.7421L9.82646 19.8401C9.89446 19.8411 9.96046 19.8501 10.0285 19.8501C12.8164 19.8501 15.3314 18.6961 17.1353 16.8441L14.0464 14.9071C14.1204 13.8141 14.1344 12.6471 14.0944 11.5271L16.3553 9.00308C17.2633 9.14908 18.1723 9.37208 18.9263 9.69908L18.9313 9.92708L18.7243 14.7041C19.5073 13.2841 19.9543 11.6541 19.9543 9.91708C19.9543 9.22508 19.8823 8.54908 19.7473 7.89608L18.9233 9.29408C18.1993 8.59808 17.2983 7.93608 16.3873 7.37508Z" fill="#00265A"/>
</g>
</svg>
