<svg width="20" height="20" viewBox="0 0 20 20" fill="none" xmlns="http://www.w3.org/2000/svg">
<path fill-rule="evenodd" clip-rule="evenodd" d="M18.5076 1.42131C15.7387 -1.28671 9.06597 -0.0806992 4.38417 4.66234C-0.296635 9.40438 -1.2116 15.8884 1.55629 18.5965C4.32417 21.3055 10.7899 20.0345 15.4707 15.2914C20.1525 10.5484 21.2765 4.12934 18.5076 1.42131Z" fill="#00265A"/>
<path fill-rule="evenodd" clip-rule="evenodd" d="M14.7559 6.3711V6.3701C14.7559 6.3701 12.799 7.1051 9.94612 9.97613C9.41214 10.4941 8.32919 11.5591 8.0402 11.9501L8.0442 11.9511C6.65926 13.4752 5.06833 15.5022 5.17232 16.6702C5.35331 18.7172 10.0901 18.4102 14.2969 14.2092C18.3378 10.1751 20.0417 3.87008 14.7559 6.3711Z" fill="white"/>
<path fill-rule="evenodd" clip-rule="evenodd" d="M8.896 12.3291C8.896 12.3291 14.3978 6.27808 16.3637 7.04109C18.3296 7.80409 14.9337 12.0371 14.9337 12.0371C14.9337 12.0371 16.9177 9.0631 15.7977 8.4531C14.5978 7.80009 8.896 12.3291 8.896 12.3291Z" fill="#F23D3E"/>
<path fill-rule="evenodd" clip-rule="evenodd" d="M15.8039 1.09604C12.6301 0.618033 8.84823 2.83305 8.84823 2.83305C8.84823 2.83305 5.19239 5.45407 2.5965 9.5081C1.07456 11.8831 0.875571 14.4011 1.17356 15.6292C1.37955 16.4782 2.09652 16.4592 2.5185 15.9962C7.52529 10.4941 11.1531 6.80008 16.2409 2.60105C16.8369 2.10904 16.8259 1.25004 15.8039 1.09604Z" fill="white"/>
<path fill-rule="evenodd" clip-rule="evenodd" d="M8.65385 2.59316C8.65385 2.59316 11.6517 1.36515 12.0357 2.13316C12.6187 3.30017 3.54306 11.2082 3.54306 11.2082C3.54306 11.2082 1.84613 12.5522 2.5961 9.50822C2.5961 9.50822 4.03804 4.20917 8.65385 2.59316Z" fill="#00265A"/>
</svg>
