<svg width="20" height="20" viewBox="0 0 20 20" fill="none" xmlns="http://www.w3.org/2000/svg">
<path fill-rule="evenodd" clip-rule="evenodd" d="M12.1801 3.75C11.2113 2.08333 8.78936 2.08333 7.82059 3.75L2.00795 13.75C1.03918 15.4167 2.25015 17.5 4.18769 17.5H15.813C17.7505 17.5 18.9615 15.4167 17.9927 13.75L12.1801 3.75ZM9.27375 4.58333C9.59667 4.02778 10.404 4.02778 10.7269 4.58333L16.5395 14.5833C16.8625 15.1389 16.4588 15.8333 15.813 15.8333H4.18769C3.54184 15.8333 3.13819 15.1389 3.46111 14.5833L9.27375 4.58333ZM10.8393 8.33333C10.8393 7.8731 10.4637 7.5 10.0003 7.5C9.53697 7.5 9.16134 7.8731 9.16134 8.33333V10C9.16134 10.4602 9.53697 10.8333 10.0003 10.8333C10.4637 10.8333 10.8393 10.4602 10.8393 10V8.33333ZM10.0003 14.1667C9.53692 14.1667 9.16129 13.7936 9.16129 13.3333C9.16129 12.8785 9.52818 12.5087 9.98405 12.5002C9.98946 12.5001 9.99489 12.5 10.0003 12.5H10.0087C10.4721 12.5 10.8477 12.8731 10.8477 13.3333C10.8477 13.7936 10.4721 14.1667 10.0087 14.1667H10.0003C10.0003 14.1667 10.0003 14.1667 10.0003 14.1667Z" fill="#00265A"/>
</svg>
